0
SECTION
2
HEADER
9
$INSUNITS
70
4
9
$ACADVER
1
AC1014
9
$HANDSEED
5
FFFF
0
ENDSEC
0
SECTION
2
TABLES
0
TABLE
2
VPORT
5
8
100
AcDbSymbolTable
0
ENDTAB
0
TABLE
2
LTYPE
5
5
100
AcDbSymbolTable
0
LTYPE
5
14
100
AcDbSymbolTableRecord
100
AcDbLinetypeTableRecord
2
BYBLOCK
70
0
0
LTYPE
5
15
100
AcDbSymbolTableRecord
100
AcDbLinetypeTableRecord
2
BYLAYER
70
0
0
ENDTAB
0
TABLE
2
LAYER
5
2
100
AcDbSymbolTable
70
2
0
LAYER
5
50
100
AcDbSymbolTableRecord
100
AcDbLayerTableRecord
2
0
70
0
6
CONTINUOUS
0
ENDTAB
0
TABLE
2
STYLE
5
3
100
AcDbSymbolTable
70
1
0
STYLE
5
11
100
AcDbSymbolTableRecord
100
AcDbTextStyleTableRecord
2
STANDARD
70
0
0
ENDTAB
0
TABLE
2
VIEW
5
6
100
AcDbSymbolTable
70
0
0
ENDTAB
0
TABLE
2
UCS
5
7
100
AcDbSymbolTable
70
0
0
ENDTAB
0
TABLE
2
APPID
5
9
100
AcDbSymbolTable
70
2
0
APPID
5
12
100
AcDbSymbolTableRecord
100
AcDbRegAppTableRecord
2
ACAD
70
0
0
ENDTAB
0
TABLE
2
DIMSTYLE
5
A
100
AcDbSymbolTable
70
1
0
ENDTAB
0
TABLE
2
BLOCK_RECORD
5
1
100
AcDbSymbolTable
70
1
0
BLOCK_RECORD
5
1F
100
AcDbSymbolTableRecord
100
AcDbBlockTableRecord
2
*MODEL_SPACE
0
BLOCK_RECORD
5
1B
100
AcDbSymbolTableRecord
100
AcDbBlockTableRecord
2
*PAPER_SPACE
0
ENDTAB
0
ENDSEC
0
SECTION
2
BLOCKS
0
BLOCK
5
20
100
AcDbEntity
100
AcDbBlockBegin
2
*MODEL_SPACE
0
ENDBLK
5
21
100
AcDbEntity
100
AcDbBlockEnd
0
BLOCK
5
1C
100
AcDbEntity
100
AcDbBlockBegin
2
*PAPER_SPACE
0
ENDBLK
5
1D
100
AcDbEntity
100
AcDbBlockEnd
0
ENDSEC
0
SECTION
2
ENTITIES
0
SPLINE
5
100
100
AcDbEntity
8
0
100
AcDbSpline
70
0
71
2
72
6
73
3
74
0
42
0.000000001
43
0.0000000001
44
0.0000000001
40
0
40
0
40
0
40
1
40
1
40
1
10
17.113786925704815
20
11.895797280821043
30
0
10
16.61924420777116
20
11.564965276273924
30
0
10
15.920062651069502
20
11.39443400338574
30
0
0
SPLINE
5
101
100
AcDbEntity
8
0
100
AcDbSpline
70
0
71
2
72
6
73
3
74
0
42
0.000000001
43
0.0000000001
44
0.0000000001
40
0
40
0
40
0
40
1
40
1
40
1
10
15.920062651069502
20
11.39443400338574
30
0
10
15.220881094367842
20
11.223901538404661
30
0
10
14.313650121124128
20
11.223901538404661
30
0
0
LINE
5
102
100
AcDbEntity
8
0
100
AcDbLine
10
14.313650121124128
20
11.223901538404661
30
0
11
10.705191855461935
21
11.223901538404661
31
0
0
LINE
5
103
100
AcDbEntity
8
0
100
AcDbLine
10
10.705191855461935
20
11.223901538404661
30
0
11
10.705191855461935
21
21.223901538404661
31
0
0
LINE
5
104
100
AcDbEntity
8
0
100
AcDbLine
10
10.705191855461935
20
21.223901538404661
30
0
11
14.149939407737593
21
21.223901538404661
31
0
0
SPLINE
5
105
100
AcDbEntity
8
0
100
AcDbSpline
70
0
71
2
72
6
73
3
74
0
42
0.000000001
43
0.0000000001
44
0.0000000001
40
0
40
0
40
0
40
1
40
1
40
1
10
14.149939407737593
20
21.223901538404661
30
0
10
15.316379060180525
20
21.223901538404661
30
0
10
15.930294384391646
20
21.08065488770886
30
0
0
SPLINE
5
106
100
AcDbEntity
8
0
100
AcDbSpline
70
0
71
2
72
6
73
3
74
0
42
0.000000001
43
0.0000000001
44
0.0000000001
40
0
40
0
40
0
40
1
40
1
40
1
10
15.930294384391646
20
21.08065488770886
30
0
10
16.789776076705792
20
20.882837204488951
30
0
10
17.396870245368817
20
20.364419846090513
30
0
0
SPLINE
5
107
100
AcDbEntity
8
0
100
AcDbSpline
70
0
71
2
72
6
73
3
74
0
42
0.000000001
43
0.0000000001
44
0.0000000001
40
0
40
0
40
0
40
1
40
1
40
1
10
17.396870245368817
20
20.364419846090513
30
0
10
18.188139190109112
20
19.695934085401731
30
0
10
18.580362786681988
20
18.655688790830808
30
0
0
SPLINE
5
108
100
AcDbEntity
8
0
100
AcDbSpline
70
0
71
2
72
6
73
3
74
0
42
0.000000001
43
0.0000000001
44
0.0000000001
40
0
40
0
40
0
40
1
40
1
40
1
10
18.580362786681988
20
18.655688790830808
30
0
10
18.972586383254864
20
17.615442900213438
30
0
10
18.972586383254864
20
16.278471974882322
30
0
0
SPLINE
5
109
100
AcDbEntity
8
0
100
AcDbSpline
70
0
71
2
72
6
73
3
74
0
42
0.000000001
43
0.0000000001
44
0.0000000001
40
0
40
0
40
0
40
1
40
1
40
1
10
18.972586383254864
20
16.278471974882322
30
0
10
18.972586383254864
20
15.139317540678219
30
0
10
18.70655654850755
20
14.259371785673336
30
0
0
SPLINE
5
110
100
AcDbEntity
8
0
100
AcDbSpline
70
0
71
2
72
6
73
3
74
0
42
0.000000001
43
0.0000000001
44
0.0000000001
40
0
40
0
40
0
40
1
40
1
40
1
10
18.70655654850755
20
14.259371785673336
30
0
10
18.440526117713787
20
13.37942722276135
30
0
10
18.024427880676129
20
12.803028850111204
30
0
0
SPLINE
5
111
100
AcDbEntity
8
0
100
AcDbSpline
70
0
71
2
72
6
73
3
74
0
42
0.000000001
43
0.0000000001
44
0.0000000001
40
0
40
0
40
0
40
1
40
1
40
1
10
18.024427880676129
20
12.803028850111204
30
0
10
17.60832964363847
20
12.226630477461057
30
0
10
17.113786925704815
20
11.895797280821043
30
0
0
LWPOLYLINE
5
112
100
AcDbEntity
8
0
100
AcDbPolyline
90
8
70
1
43
0.0
10
29.961673011215069
20
14.25255063012524
10
34.143120040328839
20
14.252550630125242
10
35.309559096725323
20
11.223901538404661
10
36.817060698898175
20
11.223901538404659
10
32.72429107609544
20
21.223901538404661
10
31.298643340499737
20
21.223901538404661
10
27.458262433441021
20
11.223901538404661
10
28.863446702392437
20
11.223901538404659
0
LWPOLYLINE
5
113
100
AcDbEntity
8
0
100
AcDbPolyline
90
10
70
1
43
0.0
10
22.185410251052716
20
15.766875772031979
10
26.878452290923931
20
15.766875772031979
10
26.878452290923931
20
16.946957735571104
10
22.185410251052716
20
16.946957735571104
10
22.185410251052716
20
20.043819574865537
10
27.608329047592022
20
20.043819574865537
10
27.608329047592022
20
21.223901538404661
10
20.862081040771344
20
21.223901538404661
10
20.862081040771344
20
11.223901538404661
10
22.185410251052716
20
11.223901538404659
0
SPLINE
5
114
100
AcDbEntity
8
0
100
AcDbSpline
70
0
71
2
72
6
73
3
74
0
42
0.000000001
43
0.0000000001
44
0.0000000001
40
0
40
0
40
0
40
1
40
1
40
1
10
44.340935935409405
20
11.885565547498899
30
0
10
43.904372443588116
20
11.558144120725828
30
0
10
43.246120204360821
20
11.391023425611692
30
0
0
SPLINE
5
115
100
AcDbEntity
8
0
100
AcDbSpline
70
0
71
2
72
6
73
3
74
0
42
0.000000001
43
0.0000000001
44
0.0000000001
40
0
40
0
40
0
40
1
40
1
40
1
10
43.246120204360821
20
11.391023425611692
30
0
10
42.587865580947735
20
11.223901538404661
30
0
10
41.6328871149138
20
11.223901538404661
30
0
0
LINE
5
116
100
AcDbEntity
8
0
100
AcDbLine
10
41.632887114913814
20
11.223901538404661
30
0
11
37.819789637954571
21
11.223901538404661
31
0
0
LINE
5
117
100
AcDbEntity
8
0
100
AcDbLine
10
37.819789637954571
20
11.223901538404661
30
0
11
37.819789637954571
21
21.223901538404661
31
0
0
LINE
5
118
100
AcDbEntity
8
0
100
AcDbLine
10
37.819789637954571
20
21.223901538404661
30
0
11
41.571494330795147
21
21.223901538404661
31
0
0
SPLINE
5
119
100
AcDbEntity
8
0
100
AcDbSpline
70
0
71
2
72
6
73
3
74
0
42
0.000000001
43
0.0000000001
44
0.0000000001
40
0
40
0
40
0
40
1
40
1
40
1
10
41.571494330795147
20
21.223901538404661
30
0
10
42.717469920547344
20
21.223901538404661
30
0
10
43.409830321700909
20
20.920354752096372
30
0
0
SPLINE
5
120
100
AcDbEntity
8
0
100
AcDbSpline
70
0
71
2
72
6
73
3
74
0
42
0.000000001
43
0.0000000001
44
0.0000000001
40
0
40
0
40
0
40
1
40
1
40
1
10
43.409830321700909
20
20.920354752096372
30
0
10
44.102190722854473
20
20.616807369741636
30
0
10
44.494415511520245
20
19.985838560613828
30
0
0
SPLINE
5
121
100
AcDbEntity
8
0
100
AcDbSpline
70
0
71
2
72
6
73
3
74
0
42
0.000000001
43
0.0000000001
44
0.0000000001
40
0
40
0
40
0
40
1
40
1
40
1
10
44.494415511520245
20
19.985838560613828
30
0
10
44.886637916000225
20
19.354870347532469
30
0
10
44.886637916000225
20
18.665920524152952
30
0
0
SPLINE
5
122
100
AcDbEntity
8
0
100
AcDbSpline
70
0
71
2
72
6
73
3
74
0
42
0.000000001
43
0.0000000001
44
0.0000000001
40
0
40
0
40
0
40
1
40
1
40
1
10
44.886637916000225
20
18.665920524152952
30
0
10
44.886637916000225
20
18.024719981703001
30
0
10
44.538751830489971
20
17.458553938421446
30
0
0
SPLINE
5
123
100
AcDbEntity
8
0
100
AcDbSpline
70
0
71
2
72
6
73
3
74
0
42
0.000000001
43
0.0000000001
44
0.0000000001
40
0
40
0
40
0
40
1
40
1
40
1
10
44.538751830489971
20
17.458553938421446
30
0
10
44.190868129165509
20
16.892387299093443
30
0
10
43.488274802596905
20
16.544501809629637
30
0
0
SPLINE
5
124
100
AcDbEntity
8
0
100
AcDbSpline
70
0
71
2
72
6
73
3
74
0
42
0.000000001
43
0.0000000001
44
0.0000000001
40
0
40
0
40
0
40
1
40
1
40
1
10
43.488274802596905
20
16.544501809629637
30
0
10
44.395505179794171
20
16.278471974882322
30
0
10
44.883228530319073
20
15.637271432432369
30
0
0
SPLINE
5
125
100
AcDbEntity
8
0
100
AcDbSpline
70
0
71
2
72
6
73
3
74
0
42
0.000000001
43
0.0000000001
44
0.0000000001
40
0
40
0
40
0
40
1
40
1
40
1
10
44.883228530319073
20
15.637271432432369
30
0
10
45.370949496658184
20
14.996070889982418
30
0
10
45.370949496658184
20
14.122946290525631
30
0
0
SPLINE
5
126
100
AcDbEntity
8
0
100
AcDbSpline
70
0
71
2
72
6
73
3
74
0
42
0.000000001
43
0.0000000001
44
0.0000000001
40
0
40
0
40
0
40
1
40
1
40
1
10
45.370949496658184
20
14.122946290525631
30
0
10
45.370949496658184
20
13.420354156049925
30
0
10
45.074223269851544
20
12.816671161207395
30
0
0
SPLINE
5
127
100
AcDbEntity
8
0
100
AcDbSpline
70
0
71
2
72
6
73
3
74
0
42
0.000000001
43
0.0000000001
44
0.0000000001
40
0
40
0
40
0
40
1
40
1
40
1
10
45.074223269851544
20
12.816671161207395
30
0
10
44.777497043044903
20
12.212986974271971
30
0
10
44.340935935409405
20
11.885565547498899
30
0
0
LWPOLYLINE
5
128
100
AcDbEntity
8
0
100
AcDbPolyline
90
28
70
1
43
0.0
10
0
20
29.999999999999996
10
60
20
30.000000000000004
10
60
20
26.500000000000007
10
56.5
20
26.500000000000007
10
56.5
20
20.000000000000004
10
60
20
20.000000000000778
10
60
20
10.000000000000778
10
56.5
20
10.000000000000009
10
56.5
20
3.5000000000000004
10
60
20
3.5000000000000009
10
60
20
7.0928514896587714e-13
10
48
20
0
10
48.000000000000007
20
3.5000000000000004
10
36
20
3.5000000000000004
10
36
20
0
10
23.999999999999993
20
0
10
24
20
3.5000000000000004
10
12
20
3.5000000000000031
10
12
20
0
10
0
20
0
10
0
20
3.5000000000000004
10
3.4999999999999987
20
3.5000000000000009
10
3.5000000000000004
20
9.9999999999999964
10
0
20
9.9999999999999964
10
0
20
19.999999999999996
10
3.5000000000000004
20
20
10
3.5000000000000009
20
26.500000000000004
10
0
20
26.5
0
ENDSEC
0
SECTION
2
OBJECTS
0
DICTIONARY
5
C
100
AcDbDictionary
3
ACAD_GROUP
350
D
3
ACAD_MLINESTYLE
350
17
0
DICTIONARY
5
D
100
AcDbDictionary
0
DICTIONARY
5
1A
330
C
100
AcDbDictionary
0
DICTIONARY
5
17
100
AcDbDictionary
0
ENDSEC
0
EOF
