0
SECTION
2
HEADER
9
$INSUNITS
70
4
9
$ACADVER
1
AC1014
9
$HANDSEED
5
FFFF
0
ENDSEC
0
SECTION
2
TABLES
0
TABLE
2
VPORT
5
8
100
AcDbSymbolTable
0
ENDTAB
0
TABLE
2
LTYPE
5
5
100
AcDbSymbolTable
0
LTYPE
5
14
100
AcDbSymbolTableRecord
100
AcDbLinetypeTableRecord
2
BYBLOCK
70
0
0
LTYPE
5
15
100
AcDbSymbolTableRecord
100
AcDbLinetypeTableRecord
2
BYLAYER
70
0
0
ENDTAB
0
TABLE
2
LAYER
5
2
100
AcDbSymbolTable
70
2
0
LAYER
5
50
100
AcDbSymbolTableRecord
100
AcDbLayerTableRecord
2
0
70
0
6
CONTINUOUS
0
ENDTAB
0
TABLE
2
STYLE
5
3
100
AcDbSymbolTable
70
1
0
STYLE
5
11
100
AcDbSymbolTableRecord
100
AcDbTextStyleTableRecord
2
STANDARD
70
0
0
ENDTAB
0
TABLE
2
VIEW
5
6
100
AcDbSymbolTable
70
0
0
ENDTAB
0
TABLE
2
UCS
5
7
100
AcDbSymbolTable
70
0
0
ENDTAB
0
TABLE
2
APPID
5
9
100
AcDbSymbolTable
70
2
0
APPID
5
12
100
AcDbSymbolTableRecord
100
AcDbRegAppTableRecord
2
ACAD
70
0
0
ENDTAB
0
TABLE
2
DIMSTYLE
5
A
100
AcDbSymbolTable
70
1
0
ENDTAB
0
TABLE
2
BLOCK_RECORD
5
1
100
AcDbSymbolTable
70
1
0
BLOCK_RECORD
5
1F
100
AcDbSymbolTableRecord
100
AcDbBlockTableRecord
2
*MODEL_SPACE
0
BLOCK_RECORD
5
1B
100
AcDbSymbolTableRecord
100
AcDbBlockTableRecord
2
*PAPER_SPACE
0
ENDTAB
0
ENDSEC
0
SECTION
2
BLOCKS
0
BLOCK
5
20
100
AcDbEntity
100
AcDbBlockBegin
2
*MODEL_SPACE
0
ENDBLK
5
21
100
AcDbEntity
100
AcDbBlockEnd
0
BLOCK
5
1C
100
AcDbEntity
100
AcDbBlockBegin
2
*PAPER_SPACE
0
ENDBLK
5
1D
100
AcDbEntity
100
AcDbBlockEnd
0
ENDSEC
0
SECTION
2
ENTITIES
0
SPLINE
5
100
100
AcDbEntity
8
0
100
AcDbSpline
70
0
71
2
72
6
73
3
74
0
42
0.000000001
43
0.0000000001
44
0.0000000001
40
-1
40
-1
40
-1
40
0
40
0
40
0
10
-32.692562868127688
20
-32.046218691698911
30
0
10
-35.057379533777102
20
-35.074344454638364
30
0
10
-36.355144311914309
20
-36.199069796435239
30
0
0
SPLINE
5
101
100
AcDbEntity
8
0
100
AcDbSpline
70
0
71
2
72
6
73
3
74
0
42
0.000000001
43
0.0000000001
44
0.0000000001
40
-1
40
-1
40
-1
40
0
40
0
40
0
10
-36.355144311914309
20
-36.199069796435239
30
0
10
-37.652909090051516
20
-37.323795138232114
30
0
10
-39.210225870141848
20
-37.987113772265317
30
0
0
SPLINE
5
102
100
AcDbEntity
8
0
100
AcDbSpline
70
0
71
2
72
6
73
3
74
0
42
0.000000001
43
0.0000000001
44
0.0000000001
40
-1
40
-1
40
-1
40
0
40
0
40
0
10
-39.210225870141848
20
-37.987113772265317
30
0
10
-40.248438646325937
20
-38.419700442187192
30
0
10
-41.892270376214853
20
-38.506217776171567
30
0
0
LINE
5
103
100
AcDbEntity
8
0
100
AcDbLine
10
-41.892270376214853
20
-38.50621777617156
30
0
11
-41.892270376214853
21
-39.573264895312192
31
0
0
LINE
5
104
100
AcDbEntity
8
0
100
AcDbLine
10
-41.892270376214853
20
-39.573264895312192
30
0
11
-28.020610143670904
21
-39.573264895312192
31
0
0
LINE
5
105
100
AcDbEntity
8
0
100
AcDbLine
10
-28.020610143670904
20
-39.573264895312192
30
0
11
-28.020610143670901
21
-38.506217776171567
31
0
0
SPLINE
5
106
100
AcDbEntity
8
0
100
AcDbSpline
70
0
71
2
72
6
73
3
74
0
42
0.000000001
43
0.0000000001
44
0.0000000001
40
-1
40
-1
40
-1
40
0
40
0
40
0
10
-28.020610143670904
20
-38.506217776171567
30
0
10
-30.097033311853277
20
-38.477378664843442
30
0
10
-30.760335256585943
20
-38.23224621855438
30
0
0
SPLINE
5
107
100
AcDbEntity
8
0
100
AcDbSpline
70
0
71
2
72
6
73
3
74
0
42
0.000000001
43
0.0000000001
44
0.0000000001
40
-1
40
-1
40
-1
40
0
40
0
40
0
10
-30.760335256585943
20
-38.23224621855438
30
0
10
-31.423637201318609
20
-37.987113772265317
30
0
10
-31.856226255426275
20
-37.381473360888364
30
0
0
SPLINE
5
108
100
AcDbEntity
8
0
100
AcDbSpline
70
0
71
2
72
6
73
3
74
0
42
0.000000001
43
0.0000000001
44
0.0000000001
40
-1
40
-1
40
-1
40
0
40
0
40
0
10
-31.856226255426275
20
-37.381473360888364
30
0
10
-32.202295591363772
20
-36.920047579638364
30
0
10
-32.202295591363772
20
-36.314426241747739
30
0
0
SPLINE
5
109
100
AcDbEntity
8
0
100
AcDbSpline
70
0
71
2
72
6
73
3
74
0
42
0.000000001
43
0.0000000001
44
0.0000000001
40
-1
40
-1
40
-1
40
0
40
0
40
0
10
-32.202295591363772
20
-36.314426241747739
30
0
10
-32.202295591363772
20
-35.708804903857114
30
0
10
-31.928324033746588
20
-35.132022677294614
30
0
0
SPLINE
5
110
100
AcDbEntity
8
0
100
AcDbSpline
70
0
71
2
72
6
73
3
74
0
42
0.000000001
43
0.0000000001
44
0.0000000001
40
-1
40
-1
40
-1
40
0
40
0
40
0
10
-31.928324033746588
20
-35.132022677294614
30
0
10
-31.654350091943609
20
-34.555240450732114
30
0
10
-30.443102647790777
20
-32.997909365527036
30
0
0
LINE
5
111
100
AcDbEntity
8
0
100
AcDbLine
10
-30.443102647790774
20
-32.997909365527036
30
0
11
-23.492850591668951
21
-24.201961336962583
31
0
0
LINE
5
112
100
AcDbEntity
8
0
100
AcDbLine
10
-23.492850591668951
20
-24.201961336962583
30
0
11
-17.494292785653936
21
-33.170944033495786
31
0
0
SPLINE
5
113
100
AcDbEntity
8
0
100
AcDbSpline
70
0
71
2
72
6
73
3
74
0
42
0.000000001
43
0.0000000001
44
0.0000000001
40
-1
40
-1
40
-1
40
0
40
0
40
0
10
-17.494292785653936
20
-33.170944033495786
30
0
10
-16.110009481439459
20
-35.218540011278989
30
0
10
-16.110009481439459
20
-36.285587130419614
30
0
0
SPLINE
5
114
100
AcDbEntity
8
0
100
AcDbSpline
70
0
71
2
72
6
73
3
74
0
42
0.000000001
43
0.0000000001
44
0.0000000001
40
-1
40
-1
40
-1
40
0
40
0
40
0
10
-16.110009481439459
20
-36.285587130419614
30
0
10
-16.110009481439459
20
-37.093082247607114
30
0
10
-16.960766841897833
20
-37.756381808153989
30
0
0
SPLINE
5
115
100
AcDbEntity
8
0
100
AcDbSpline
70
0
71
2
72
6
73
3
74
0
42
0.000000001
43
0.0000000001
44
0.0000000001
40
-1
40
-1
40
-1
40
0
40
0
40
0
10
-16.960766841897833
20
-37.756381808153989
30
0
10
-17.811524202356207
20
-38.419700442187192
30
0
10
-20.118661453256475
20
-38.506217776171567
30
0
0
LINE
5
116
100
AcDbEntity
8
0
100
AcDbLine
10
-20.118661453256472
20
-38.50621777617156
30
0
11
-20.118661453256475
21
-39.573264895312185
31
0
0
LINE
5
117
100
AcDbEntity
8
0
100
AcDbLine
10
-20.118661453256475
20
-39.573264895312185
30
0
11
-2.0364705522154436
21
-39.573264895312192
31
0
0
LINE
5
118
100
AcDbEntity
8
0
100
AcDbLine
10
-2.0364705522154436
20
-39.573264895312192
30
0
11
-2.0364705522154436
21
-38.506217776171567
31
0
0
SPLINE
5
119
100
AcDbEntity
8
0
100
AcDbSpline
70
0
71
2
72
6
73
3
74
0
42
0.000000001
43
0.0000000001
44
0.0000000001
40
-1
40
-1
40
-1
40
0
40
0
40
0
10
-2.0364705522154436
20
-38.506217776171567
30
0
10
-4.8915534515474901
20
-38.419700442187192
30
0
10
-7.0833342571352587
20
-36.992145357958677
30
0
0
SPLINE
5
120
100
AcDbEntity
8
0
100
AcDbSpline
70
0
71
2
72
6
73
3
74
0
42
0.000000001
43
0.0000000001
44
0.0000000001
40
-1
40
-1
40
-1
40
0
40
0
40
0
10
-7.0833342571352587
20
-36.992145357958677
30
0
10
-9.2751150627230281
20
-35.564609347216489
30
0
10
-12.418590118417608
20
-30.979171572558286
30
0
0
LINE
5
121
100
AcDbEntity
8
0
100
AcDbLine
10
-12.418590118417608
20
-30.979171572558286
30
0
11
-20.118661453256475
21
-19.703040896288751
31
0
0
LINE
5
122
100
AcDbEntity
8
0
100
AcDbLine
10
-20.118661453256475
20
-19.703040896288751
30
0
11
-10.890111257562506
21
-8.0520017727535986
31
0
0
SPLINE
5
123
100
AcDbEntity
8
0
100
AcDbSpline
70
0
71
2
72
6
73
3
74
0
42
0.000000001
43
0.0000000001
44
0.0000000001
40
-1
40
-1
40
-1
40
0
40
0
40
0
10
-10.890111257562506
20
-8.0520017727535986
30
0
10
-8.8136874933336848
20
-5.4276235684078955
30
0
10
-7.1986912984942064
20
-4.1587026699703955
30
0
0
SPLINE
5
124
100
AcDbEntity
8
0
100
AcDbSpline
70
0
71
2
72
6
73
3
74
0
42
0.000000001
43
0.0000000001
44
0.0000000001
40
-1
40
-1
40
-1
40
0
40
0
40
0
10
-7.1986912984942064
20
-4.1587026699703955
30
0
10
-5.5836945076082811
20
-2.8897626980465674
30
0
10
-3.7956630487536058
20
-2.1399458035153174
30
0
0
SPLINE
5
125
100
AcDbEntity
8
0
100
AcDbSpline
70
0
71
2
72
6
73
3
74
0
42
0.000000001
43
0.0000000001
44
0.0000000001
40
-1
40
-1
40
-1
40
0
40
0
40
0
10
-3.7956630487536058
20
-2.1399458035153174
30
0
10
-2.7286117572878466
20
-1.6785200222653174
30
0
10
-1.2578115661238298
20
-1.5343244656246924
30
0
0
LINE
5
126
100
AcDbEntity
8
0
100
AcDbLine
10
-1.2578115661238298
20
-1.5343244656246924
30
0
11
-1.2578115661238298
21
-0.46727734648406738
31
0
0
LINE
5
127
100
AcDbEntity
8
0
100
AcDbLine
10
-1.2578115661238298
20
-0.46727734648406738
30
0
11
-15.129476120004522
21
-0.46727734648406738
31
0
0
LINE
5
128
100
AcDbEntity
8
0
100
AcDbLine
10
-15.129476120004522
20
-0.46727734648406738
30
0
11
-15.129476120004522
21
-1.5343244656246924
31
0
0
SPLINE
5
129
100
AcDbEntity
8
0
100
AcDbSpline
70
0
71
2
72
6
73
3
74
0
42
0.000000001
43
0.0000000001
44
0.0000000001
40
-1
40
-1
40
-1
40
0
40
0
40
0
10
-15.129476120004522
20
-1.5343244656246924
30
0
10
-12.937695314416754
20
-1.6208417996090674
30
0
10
-12.159036924371588
20
-2.2264631374996924
30
0
0
SPLINE
5
130
100
AcDbEntity
8
0
100
AcDbSpline
70
0
71
2
72
6
73
3
74
0
42
0.000000001
43
0.0000000001
44
0.0000000001
40
-1
40
-1
40
-1
40
0
40
0
40
0
10
-12.159036924371588
20
-2.2264631374996924
30
0
10
-11.380377342233526
20
-2.8320844753903174
30
0
10
-11.380377342233526
20
-3.7549551113766455
30
0
0
SPLINE
5
131
100
AcDbEntity
8
0
100
AcDbSpline
70
0
71
2
72
6
73
3
74
0
42
0.000000001
43
0.0000000001
44
0.0000000001
40
-1
40
-1
40
-1
40
0
40
0
40
0
10
-11.380377342233526
20
-3.7549551113766455
30
0
10
-11.380377342233526
20
-4.3605764492672705
30
0
10
-11.639930536279547
20
-4.922939120165708
30
0
0
SPLINE
5
132
100
AcDbEntity
8
0
100
AcDbSpline
70
0
71
2
72
6
73
3
74
0
42
0.000000001
43
0.0000000001
44
0.0000000001
40
-1
40
-1
40
-1
40
0
40
0
40
0
10
-11.639930536279547
20
-4.922939120165708
30
0
10
-11.899483730325567
20
-5.4853017910641455
30
0
10
-13.197248508462774
20
-7.1579702480953955
30
0
0
LINE
5
133
100
AcDbEntity
8
0
100
AcDbLine
10
-13.197248508462774
20
-7.1579702480953955
30
0
11
-21.387588312158453
21
-17.655444918505552
31
0
0
LINE
5
134
100
AcDbEntity
8
0
100
AcDbLine
10
-21.387588312158453
20
-17.655444918505552
30
0
11
-28.020610143670904
21
-7.6193960293453955
31
0
0
SPLINE
5
135
100
AcDbEntity
8
0
100
AcDbSpline
70
0
71
2
72
6
73
3
74
0
42
0.000000001
43
0.0000000001
44
0.0000000001
40
-1
40
-1
40
-1
40
0
40
0
40
0
10
-28.020610143670904
20
-7.6193960293453955
30
0
10
-29.404892255792486
20
-5.5718191250485205
30
0
10
-29.606766035089361
20
-5.0815542324703955
30
0
0
SPLINE
5
136
100
AcDbEntity
8
0
100
AcDbSpline
70
0
71
2
72
6
73
3
74
0
42
0.000000001
43
0.0000000001
44
0.0000000001
40
-1
40
-1
40
-1
40
0
40
0
40
0
10
-29.606766035089361
20
-5.0815542324703955
30
0
10
-29.866320421228277
20
-4.4182546719235205
30
0
10
-29.866320421228277
20
-3.7549551113766455
30
0
0
SPLINE
5
137
100
AcDbEntity
8
0
100
AcDbSpline
70
0
71
2
72
6
73
3
74
0
42
0.000000001
43
0.0000000001
44
0.0000000001
40
-1
40
-1
40
-1
40
0
40
0
40
0
10
-29.866320421228277
20
-3.7549551113766455
30
0
10
-29.866320421228277
20
-3.2070119961422705
30
0
10
-29.476990034112799
20
-2.6734693630856299
30
0
0
SPLINE
5
138
100
AcDbEntity
8
0
100
AcDbSpline
70
0
71
2
72
6
73
3
74
0
42
0.000000001
43
0.0000000001
44
0.0000000001
40
-1
40
-1
40
-1
40
0
40
0
40
0
10
-29.476990034112799
20
-2.6734693630856299
30
0
10
-29.08765964699732
20
-2.1399458035153174
30
0
10
-28.482035924920904
20
-1.8803938015621924
30
0
0
SPLINE
5
139
100
AcDbEntity
8
0
100
AcDbSpline
70
0
71
2
72
6
73
3
74
0
42
0.000000001
43
0.0000000001
44
0.0000000001
40
-1
40
-1
40
-1
40
0
40
0
40
0
10
-28.482035924920904
20
-1.8803938015621924
30
0
10
-27.674538423547613
20
-1.5631635769528174
30
0
10
-26.00186281395899
20
-1.5343244656246924
30
0
0
LINE
5
140
100
AcDbEntity
8
0
100
AcDbLine
10
-26.00186281395899
20
-1.5343244656246926
30
0
11
-26.001862813958994
21
-0.46727734648407182
31
0
0
LINE
5
141
100
AcDbEntity
8
0
100
AcDbLine
10
-26.001862813958994
20
-0.46727734648407182
30
0
11
-42.78628759575831
21
-0.46727734648406738
31
0
0
LINE
5
142
100
AcDbEntity
8
0
100
AcDbLine
10
-42.78628759575831
20
-0.46727734648406738
30
0
11
-42.786287595758317
21
-1.5343244656246924
31
0
0
SPLINE
5
143
100
AcDbEntity
8
0
100
AcDbSpline
70
0
71
2
72
6
73
3
74
0
42
0.000000001
43
0.0000000001
44
0.0000000001
40
-1
40
-1
40
-1
40
0
40
0
40
0
10
-42.78628759575831
20
-1.5343244656246924
30
0
10
-40.190760423669687
20
-1.6785200222653174
30
0
10
-38.503665258416994
20
-3.048396883837583
30
0
0
SPLINE
5
144
100
AcDbEntity
8
0
100
AcDbSpline
70
0
71
2
72
6
73
3
74
0
42
0.000000001
43
0.0000000001
44
0.0000000001
40
-1
40
-1
40
-1
40
0
40
0
40
0
10
-38.503665258416994
20
-3.048396883837583
30
0
10
-36.8165724773501
20
-4.4182546719235205
30
0
10
-33.327025701532229
20
-9.6093137844723486
30
0
0
LINE
5
145
100
AcDbEntity
8
0
100
AcDbLine
10
-33.327025701532229
20
-9.6093137844723469
30
0
11
-24.934813310632574
21
-22.125526247851255
31
0
0
LINE
5
146
100
AcDbEntity
8
0
100
AcDbLine
10
-24.934813310632574
20
-22.125526247851255
30
0
11
-32.692562868127688
21
-32.046218691698911
31
0
0
ENDSEC
0
SECTION
2
OBJECTS
0
DICTIONARY
5
C
100
AcDbDictionary
3
ACAD_GROUP
350
D
3
ACAD_MLINESTYLE
350
17
0
DICTIONARY
5
D
100
AcDbDictionary
0
DICTIONARY
5
1A
330
C
100
AcDbDictionary
0
DICTIONARY
5
17
100
AcDbDictionary
0
ENDSEC
0
EOF
