0
SECTION
2
HEADER
9
$INSUNITS
70
4
9
$ACADVER
1
AC1014
9
$HANDSEED
5
FFFF
0
ENDSEC
0
SECTION
2
TABLES
0
TABLE
2
VPORT
5
8
100
AcDbSymbolTable
0
ENDTAB
0
TABLE
2
LTYPE
5
5
100
AcDbSymbolTable
0
LTYPE
5
14
100
AcDbSymbolTableRecord
100
AcDbLinetypeTableRecord
2
BYBLOCK
70
0
0
LTYPE
5
15
100
AcDbSymbolTableRecord
100
AcDbLinetypeTableRecord
2
BYLAYER
70
0
0
ENDTAB
0
TABLE
2
LAYER
5
2
100
AcDbSymbolTable
70
2
0
LAYER
5
50
100
AcDbSymbolTableRecord
100
AcDbLayerTableRecord
2
0
70
0
6
CONTINUOUS
0
ENDTAB
0
TABLE
2
STYLE
5
3
100
AcDbSymbolTable
70
1
0
STYLE
5
11
100
AcDbSymbolTableRecord
100
AcDbTextStyleTableRecord
2
STANDARD
70
0
0
ENDTAB
0
TABLE
2
VIEW
5
6
100
AcDbSymbolTable
70
0
0
ENDTAB
0
TABLE
2
UCS
5
7
100
AcDbSymbolTable
70
0
0
ENDTAB
0
TABLE
2
APPID
5
9
100
AcDbSymbolTable
70
2
0
APPID
5
12
100
AcDbSymbolTableRecord
100
AcDbRegAppTableRecord
2
ACAD
70
0
0
ENDTAB
0
TABLE
2
DIMSTYLE
5
A
100
AcDbSymbolTable
70
1
0
ENDTAB
0
TABLE
2
BLOCK_RECORD
5
1
100
AcDbSymbolTable
70
1
0
BLOCK_RECORD
5
1F
100
AcDbSymbolTableRecord
100
AcDbBlockTableRecord
2
*MODEL_SPACE
0
BLOCK_RECORD
5
1B
100
AcDbSymbolTableRecord
100
AcDbBlockTableRecord
2
*PAPER_SPACE
0
ENDTAB
0
ENDSEC
0
SECTION
2
BLOCKS
0
BLOCK
5
20
100
AcDbEntity
100
AcDbBlockBegin
2
*MODEL_SPACE
0
ENDBLK
5
21
100
AcDbEntity
100
AcDbBlockEnd
0
BLOCK
5
1C
100
AcDbEntity
100
AcDbBlockBegin
2
*PAPER_SPACE
0
ENDBLK
5
1D
100
AcDbEntity
100
AcDbBlockEnd
0
ENDSEC
0
SECTION
2
ENTITIES
0
SPLINE
5
100
100
AcDbEntity
8
0
100
AcDbSpline
70
0
71
2
72
6
73
3
74
0
42
0.000000001
43
0.0000000001
44
0.0000000001
40
-1
40
-1
40
-1
40
0
40
0
40
0
10
-179.9456112880801
20
-197.75639611326869
30
0
10
-178.5613339443301
20
-197.75639611326869
30
0
10
-177.3212330837344
20
-198.44853478514369
30
0
0
SPLINE
5
101
100
AcDbEntity
8
0
100
AcDbSpline
70
0
71
2
72
6
73
3
74
0
42
0.000000001
43
0.0000000001
44
0.0000000001
40
-1
40
-1
40
-1
40
0
40
0
40
0
10
-177.3212330837344
20
-198.44853478514369
30
0
10
-176.3983815212344
20
-198.96764355742152
30
0
10
-176.10999040795315
20
-199.68862134062465
30
0
0
SPLINE
5
102
100
AcDbEntity
8
0
100
AcDbSpline
70
0
71
2
72
6
73
3
74
0
42
0.000000001
43
0.0000000001
44
0.0000000001
40
-1
40
-1
40
-1
40
0
40
0
40
0
10
-176.10999040795315
20
-199.68862134062465
30
0
10
-175.73508196068752
20
-200.64031678282436
30
0
10
-175.73508196068752
20
-203.61075955473598
30
0
0
LINE
5
103
100
AcDbEntity
8
0
100
AcDbLine
10
-175.73508196068752
20
-203.61075955473603
30
0
11
-175.73508196068752
21
-228.87391406141933
31
0
0
SPLINE
5
104
100
AcDbEntity
8
0
100
AcDbSpline
70
0
71
2
72
6
73
3
74
0
42
0.000000001
43
0.0000000001
44
0.0000000001
40
-1
40
-1
40
-1
40
0
40
0
40
0
10
-175.73508196068752
20
-228.87391406141933
30
0
10
-175.73508196068752
20
-232.39229994856532
30
0
10
-176.45605974389065
20
-233.31515389525111
30
0
0
SPLINE
5
105
100
AcDbEntity
8
0
100
AcDbSpline
70
0
71
2
72
6
73
3
74
0
42
0.000000001
43
0.0000000001
44
0.0000000001
40
-1
40
-1
40
-1
40
0
40
0
40
0
10
-176.45605974389065
20
-233.31515389525111
30
0
10
-177.55196504784573
20
-234.72827750288661
30
0
10
-179.9456112880801
20
-234.72827750288661
30
0
0
LINE
5
106
100
AcDbEntity
8
0
100
AcDbLine
10
-179.9456112880801
20
-234.72827750288661
30
0
11
-181.35872774315823
21
-234.72827750288661
31
0
0
LINE
5
107
100
AcDbEntity
8
0
100
AcDbLine
10
-181.35872774315823
20
-234.72827750288661
30
0
11
-181.35872774315823
21
-235.79532700621303
31
0
0
LINE
5
108
100
AcDbEntity
8
0
100
AcDbLine
10
-181.35872774315823
20
-235.79532700621303
30
0
11
-164.60314684105862
21
-235.79532700621303
31
0
0
LINE
5
109
100
AcDbEntity
8
0
100
AcDbLine
10
-164.60314684105862
20
-235.79532700621303
30
0
11
-164.60314684105862
21
-234.72827750288661
31
0
0
LINE
5
110
100
AcDbEntity
8
0
100
AcDbLine
10
-164.60314684105862
20
-234.72827750288661
30
0
11
-165.98742418480856
21
-234.72827750288661
31
0
0
SPLINE
5
111
100
AcDbEntity
8
0
100
AcDbSpline
70
0
71
2
72
6
73
3
74
0
42
0.000000001
43
0.0000000001
44
0.0000000001
40
-1
40
-1
40
-1
40
0
40
0
40
0
10
-165.98742418480862
20
-234.72827750288661
30
0
10
-167.37172060204495
20
-234.72827750288661
30
0
10
-168.64064150048245
20
-234.03613406264003
30
0
0
SPLINE
5
112
100
AcDbEntity
8
0
100
AcDbSpline
70
0
71
2
72
6
73
3
74
0
42
0.000000001
43
0.0000000001
44
0.0000000001
40
-1
40
-1
40
-1
40
0
40
0
40
0
10
-168.64064150048245
20
-234.03613406264003
30
0
10
-169.53465395165432
20
-233.51703005873378
30
0
10
-169.82304506493557
20
-232.79604750715907
30
0
0
SPLINE
5
113
100
AcDbEntity
8
0
100
AcDbSpline
70
0
71
2
72
6
73
3
74
0
42
0.000000001
43
0.0000000001
44
0.0000000001
40
-1
40
-1
40
-1
40
0
40
0
40
0
10
-169.82304506493557
20
-232.79604750715907
30
0
10
-170.1979535122012
20
-231.84435444914516
30
0
10
-170.1979535122012
20
-228.87391406141933
30
0
0
LINE
5
114
100
AcDbEntity
8
0
100
AcDbLine
10
-170.1979535122012
20
-228.87391406141933
30
0
11
-170.1979535122012
21
-203.61075955473598
31
0
0
SPLINE
5
115
100
AcDbEntity
8
0
100
AcDbSpline
70
0
71
2
72
6
73
3
74
0
42
0.000000001
43
0.0000000001
44
0.0000000001
40
-1
40
-1
40
-1
40
0
40
0
40
0
10
-170.1979535122012
20
-203.61075955473598
30
0
10
-170.1979535122012
20
-200.09237366758998
30
0
10
-169.5058148403262
20
-199.1695173367184
30
0
0
SPLINE
5
116
100
AcDbEntity
8
0
100
AcDbSpline
70
0
71
2
72
6
73
3
74
0
42
0.000000001
43
0.0000000001
44
0.0000000001
40
-1
40
-1
40
-1
40
0
40
0
40
0
10
-169.5058148403262
20
-199.1695173367184
30
0
10
-168.40992860985745
20
-197.75639611326869
30
0
10
-165.98742418480862
20
-197.75639611326869
30
0
0
LINE
5
117
100
AcDbEntity
8
0
100
AcDbLine
10
-165.98742418480862
20
-197.75639611326869
30
0
11
-164.60314684105862
21
-197.75639611326869
31
0
0
LINE
5
118
100
AcDbEntity
8
0
100
AcDbLine
10
-164.60314684105862
20
-197.75639611326869
30
0
11
-164.60314684105862
21
-196.68934422575649
31
0
0
LINE
5
119
100
AcDbEntity
8
0
100
AcDbLine
10
-164.60314684105862
20
-196.68934422575649
30
0
11
-181.35872774315823
21
-196.68934422575649
31
0
0
LINE
5
120
100
AcDbEntity
8
0
100
AcDbLine
10
-181.35872774315823
20
-196.68934422575649
30
0
11
-181.35872774315823
21
-197.75639611326869
31
0
0
LINE
5
121
100
AcDbEntity
8
0
100
AcDbLine
10
-181.35872774315823
20
-197.75639611326869
30
0
11
-179.9456112880801
21
-197.75639611326869
31
0
0
ENDSEC
0
SECTION
2
OBJECTS
0
DICTIONARY
5
C
100
AcDbDictionary
3
ACAD_GROUP
350
D
3
ACAD_MLINESTYLE
350
17
0
DICTIONARY
5
D
100
AcDbDictionary
0
DICTIONARY
5
1A
330
C
100
AcDbDictionary
0
DICTIONARY
5
17
100
AcDbDictionary
0
ENDSEC
0
EOF
