0
SECTION
2
HEADER
9
$INSUNITS
70
4
9
$ACADVER
1
AC1014
9
$HANDSEED
5
FFFF
0
ENDSEC
0
SECTION
2
TABLES
0
TABLE
2
VPORT
5
8
100
AcDbSymbolTable
0
ENDTAB
0
TABLE
2
LTYPE
5
5
100
AcDbSymbolTable
0
LTYPE
5
14
100
AcDbSymbolTableRecord
100
AcDbLinetypeTableRecord
2
BYBLOCK
70
0
0
LTYPE
5
15
100
AcDbSymbolTableRecord
100
AcDbLinetypeTableRecord
2
BYLAYER
70
0
0
ENDTAB
0
TABLE
2
LAYER
5
2
100
AcDbSymbolTable
70
2
0
LAYER
5
50
100
AcDbSymbolTableRecord
100
AcDbLayerTableRecord
2
0
70
0
6
CONTINUOUS
0
ENDTAB
0
TABLE
2
STYLE
5
3
100
AcDbSymbolTable
70
1
0
STYLE
5
11
100
AcDbSymbolTableRecord
100
AcDbTextStyleTableRecord
2
STANDARD
70
0
0
ENDTAB
0
TABLE
2
VIEW
5
6
100
AcDbSymbolTable
70
0
0
ENDTAB
0
TABLE
2
UCS
5
7
100
AcDbSymbolTable
70
0
0
ENDTAB
0
TABLE
2
APPID
5
9
100
AcDbSymbolTable
70
2
0
APPID
5
12
100
AcDbSymbolTableRecord
100
AcDbRegAppTableRecord
2
ACAD
70
0
0
ENDTAB
0
TABLE
2
DIMSTYLE
5
A
100
AcDbSymbolTable
70
1
0
ENDTAB
0
TABLE
2
BLOCK_RECORD
5
1
100
AcDbSymbolTable
70
1
0
BLOCK_RECORD
5
1F
100
AcDbSymbolTableRecord
100
AcDbBlockTableRecord
2
*MODEL_SPACE
0
BLOCK_RECORD
5
1B
100
AcDbSymbolTableRecord
100
AcDbBlockTableRecord
2
*PAPER_SPACE
0
ENDTAB
0
ENDSEC
0
SECTION
2
BLOCKS
0
BLOCK
5
20
100
AcDbEntity
100
AcDbBlockBegin
2
*MODEL_SPACE
0
ENDBLK
5
21
100
AcDbEntity
100
AcDbBlockEnd
0
BLOCK
5
1C
100
AcDbEntity
100
AcDbBlockBegin
2
*PAPER_SPACE
0
ENDBLK
5
1D
100
AcDbEntity
100
AcDbBlockEnd
0
ENDSEC
0
SECTION
2
ENTITIES
0
LINE
5
100
100
AcDbEntity
8
0
100
AcDbLine
10
-160.6029834647272
20
-168.98333597027477
30
0
11
-160.60298346472717
21
-167.91627931439103
31
0
0
SPLINE
5
101
100
AcDbEntity
8
0
100
AcDbSpline
70
0
71
2
72
6
73
3
74
0
42
0.000000001
43
0.0000000001
44
0.0000000001
40
-1
40
-1
40
-1
40
0
40
0
40
0
10
-160.6029834647272
20
-167.91627931439098
30
0
10
-160.9490528006647
20
-167.85860109173473
30
0
10
-161.09324835730533
20
-167.8297619804066
30
0
0
SPLINE
5
102
100
AcDbEntity
8
0
100
AcDbSpline
70
0
71
2
72
6
73
3
74
0
42
0.000000001
43
0.0000000001
44
0.0000000001
40
-1
40
-1
40
-1
40
0
40
0
40
0
10
-161.09324835730533
20
-167.8297619804066
30
0
10
-163.08314703894595
20
-167.51253175579723
30
0
10
-163.91948126746158
20
-166.74829530560191
30
0
0
SPLINE
5
103
100
AcDbEntity
8
0
100
AcDbSpline
70
0
71
2
72
6
73
3
74
0
42
0.000000001
43
0.0000000001
44
0.0000000001
40
-1
40
-1
40
-1
40
0
40
0
40
0
10
-163.91948126746158
20
-166.74829530560191
30
0
10
-164.75583456946353
20
-165.9840588554066
30
0
10
-164.75583456946353
20
-165.14771509014781
30
0
0
SPLINE
5
104
100
AcDbEntity
8
0
100
AcDbSpline
70
0
71
2
72
6
73
3
74
0
42
0.000000001
43
0.0000000001
44
0.0000000001
40
-1
40
-1
40
-1
40
0
40
0
40
0
10
-164.75583456946353
20
-165.14771509014781
30
0
10
-164.75583456946353
20
-163.84994554363902
30
0
10
-163.40037726355533
20
-160.50459909283336
30
0
0
LINE
5
105
100
AcDbEntity
8
0
100
AcDbLine
10
-163.40037726355533
20
-160.50459909283336
30
0
11
-154.17183302832584
21
-137.86581086956676
31
0
0
LINE
5
106
100
AcDbEntity
8
0
100
AcDbLine
10
-154.17183302832584
20
-137.86581086956676
30
0
11
-144.22230147315008
21
-160.79299974285772
31
0
0
SPLINE
5
107
100
AcDbEntity
8
0
100
AcDbSpline
70
0
71
2
72
6
73
3
74
0
42
0.000000001
43
0.0000000001
44
0.0000000001
40
-1
40
-1
40
-1
40
0
40
0
40
0
10
-144.22230147315008
20
-160.79299974285777
30
0
10
-142.89570235205633
20
-163.84994554363902
30
0
10
-142.89570235205633
20
-165.29191064678844
30
0
0
SPLINE
5
108
100
AcDbEntity
8
0
100
AcDbSpline
70
0
71
2
72
6
73
3
74
0
42
0.000000001
43
0.0000000001
44
0.0000000001
40
-1
40
-1
40
-1
40
0
40
0
40
0
10
-142.89570235205633
20
-165.29191064678844
30
0
10
-142.89570235205633
20
-166.3301281913441
30
0
10
-143.70319746924383
20
-166.99342775189098
30
0
0
SPLINE
5
109
100
AcDbEntity
8
0
100
AcDbSpline
70
0
71
2
72
6
73
3
74
0
42
0.000000001
43
0.0000000001
44
0.0000000001
40
-1
40
-1
40
-1
40
0
40
0
40
0
10
-143.70319746924383
20
-166.99342775189098
30
0
10
-144.51069258643133
20
-167.65672731243785
30
0
10
-147.22157858801825
20
-167.91627931439098
30
0
0
LINE
5
110
100
AcDbEntity
8
0
100
AcDbLine
10
-147.22157858801825
20
-167.91627931439098
30
0
11
-147.22157858801825
21
-168.98333597027477
31
0
0
LINE
5
111
100
AcDbEntity
8
0
100
AcDbLine
10
-147.22157858801825
20
-168.98333597027477
30
0
11
-131.24465369177801
21
-168.98333597027477
31
-3.0814879110195774e-32
0
LINE
5
112
100
AcDbEntity
8
0
100
AcDbLine
10
-131.24465369177801
20
-168.98333597027477
30
-3.0814879110195774e-32
11
-131.24465369177801
21
-167.91627931439098
31
0
0
SPLINE
5
113
100
AcDbEntity
8
0
100
AcDbSpline
70
0
71
2
72
6
73
3
74
0
42
0.000000001
43
0.0000000001
44
0.0000000001
40
-1
40
-1
40
-1
40
0
40
0
40
0
10
-131.24465369177801
20
-167.91627931439098
30
0
10
-133.03268813086493
20
-167.77208375775035
30
0
10
-134.08531569434149
20
-167.26739930950816
30
0
0
SPLINE
5
114
100
AcDbEntity
8
0
100
AcDbSpline
70
0
71
2
72
6
73
3
74
0
42
0.000000001
43
0.0000000001
44
0.0000000001
40
-1
40
-1
40
-1
40
0
40
0
40
0
10
-134.08531569434149
20
-167.26739930950816
30
0
10
-135.13795279456122
20
-166.76271486126598
30
0
10
-135.85893057776434
20
-165.8687024100941
30
0
0
SPLINE
5
115
100
AcDbEntity
8
0
100
AcDbSpline
70
0
71
2
72
6
73
3
74
0
42
0.000000001
43
0.0000000001
44
0.0000000001
40
-1
40
-1
40
-1
40
0
40
0
40
0
10
-135.85893057776434
20
-165.8687024100941
30
0
10
-136.32035635901434
20
-165.29191064678844
30
0
10
-137.44508170081122
20
-162.69638109051402
30
0
0
LINE
5
116
100
AcDbEntity
8
0
100
AcDbLine
10
-137.44508170081119
20
-162.69638109051402
30
0
11
-152.0954074759577
21
-128.98333597027477
31
0
0
LINE
5
117
100
AcDbEntity
8
0
100
AcDbLine
10
-152.0954074759577
20
-128.98333597027477
30
0
11
-153.16246413184149
21
-128.98333597027477
31
0
0
LINE
5
118
100
AcDbEntity
8
0
100
AcDbLine
10
-153.16246413184149
20
-128.98333597027477
30
0
11
-166.80341147376041
21
-162.26379442059215
31
0
0
SPLINE
5
119
100
AcDbEntity
8
0
100
AcDbSpline
70
0
71
2
72
6
73
3
74
0
42
0.000000001
43
0.0000000001
44
0.0000000001
40
-1
40
-1
40
-1
40
0
40
0
40
0
10
-166.80341147376041
20
-162.26379442059215
30
0
10
-167.98581503821353
20
-165.17655420147594
30
0
10
-169.51430701209048
20
-166.58968019329723
30
0
0
SPLINE
5
120
100
AcDbEntity
8
0
100
AcDbSpline
70
0
71
2
72
6
73
3
74
0
42
0.000000001
43
0.0000000001
44
0.0000000001
40
-1
40
-1
40
-1
40
0
40
0
40
0
10
-169.51430701209048
20
-166.58968019329723
30
0
10
-170.58135413123111
20
-167.54137086712535
30
0
10
-172.65777014685611
20
-167.91627931439098
30
0
0
LINE
5
121
100
AcDbEntity
8
0
100
AcDbLine
10
-172.65777014685611
20
-167.91627931439098
30
0
11
-172.65777014685611
21
-168.98333597027474
31
0
0
LINE
5
122
100
AcDbEntity
8
0
100
AcDbLine
10
-172.65777014685611
20
-168.98333597027474
30
0
11
-160.6029834647272
21
-168.98333597027477
31
0
0
ENDSEC
0
SECTION
2
OBJECTS
0
DICTIONARY
5
C
100
AcDbDictionary
3
ACAD_GROUP
350
D
3
ACAD_MLINESTYLE
350
17
0
DICTIONARY
5
D
100
AcDbDictionary
0
DICTIONARY
5
1A
330
C
100
AcDbDictionary
0
DICTIONARY
5
17
100
AcDbDictionary
0
ENDSEC
0
EOF
