0
SECTION
2
HEADER
9
$INSUNITS
70
4
9
$ACADVER
1
AC1014
9
$HANDSEED
5
FFFF
0
ENDSEC
0
SECTION
2
TABLES
0
TABLE
2
VPORT
5
8
100
AcDbSymbolTable
0
ENDTAB
0
TABLE
2
LTYPE
5
5
100
AcDbSymbolTable
0
LTYPE
5
14
100
AcDbSymbolTableRecord
100
AcDbLinetypeTableRecord
2
BYBLOCK
70
0
0
LTYPE
5
15
100
AcDbSymbolTableRecord
100
AcDbLinetypeTableRecord
2
BYLAYER
70
0
0
ENDTAB
0
TABLE
2
LAYER
5
2
100
AcDbSymbolTable
70
2
0
LAYER
5
50
100
AcDbSymbolTableRecord
100
AcDbLayerTableRecord
2
0
70
0
6
CONTINUOUS
0
ENDTAB
0
TABLE
2
STYLE
5
3
100
AcDbSymbolTable
70
1
0
STYLE
5
11
100
AcDbSymbolTableRecord
100
AcDbTextStyleTableRecord
2
STANDARD
70
0
0
ENDTAB
0
TABLE
2
VIEW
5
6
100
AcDbSymbolTable
70
0
0
ENDTAB
0
TABLE
2
UCS
5
7
100
AcDbSymbolTable
70
0
0
ENDTAB
0
TABLE
2
APPID
5
9
100
AcDbSymbolTable
70
2
0
APPID
5
12
100
AcDbSymbolTableRecord
100
AcDbRegAppTableRecord
2
ACAD
70
0
0
ENDTAB
0
TABLE
2
DIMSTYLE
5
A
100
AcDbSymbolTable
70
1
0
ENDTAB
0
TABLE
2
BLOCK_RECORD
5
1
100
AcDbSymbolTable
70
1
0
BLOCK_RECORD
5
1F
100
AcDbSymbolTableRecord
100
AcDbBlockTableRecord
2
*MODEL_SPACE
0
BLOCK_RECORD
5
1B
100
AcDbSymbolTableRecord
100
AcDbBlockTableRecord
2
*PAPER_SPACE
0
ENDTAB
0
ENDSEC
0
SECTION
2
BLOCKS
0
BLOCK
5
20
100
AcDbEntity
100
AcDbBlockBegin
2
*MODEL_SPACE
0
ENDBLK
5
21
100
AcDbEntity
100
AcDbBlockEnd
0
BLOCK
5
1C
100
AcDbEntity
100
AcDbBlockBegin
2
*PAPER_SPACE
0
ENDBLK
5
1D
100
AcDbEntity
100
AcDbBlockEnd
0
ENDSEC
0
SECTION
2
ENTITIES
0
LWPOLYLINE
5
100
100
AcDbEntity
8
0
100
AcDbPolyline
90
4
70
1
43
0.0
10
27.73315154958167
20
19.094226650898605
10
27.242020005468515
20
19.094226650898605
10
25.792497033361581
20
13.923694781963983
10
26.287040347341684
20
13.923694781963983
0
SPLINE
5
101
100
AcDbEntity
8
0
100
AcDbSpline
70
0
71
2
72
6
73
3
74
0
42
0.000000001
43
0.0000000001
44
0.0000000001
40
0
40
0
40
0
40
1
40
1
40
1
10
15.173465842489403
20
14.344908885662708
30
0
10
14.926194483522575
20
14.179492883389148
30
0
10
14.576603705171745
20
14.09422724694506
30
0
0
SPLINE
5
102
100
AcDbEntity
8
0
100
AcDbSpline
70
0
71
2
72
6
73
3
74
0
42
0.000000001
43
0.0000000001
44
0.0000000001
40
0
40
0
40
0
40
1
40
1
40
1
10
14.576603705171745
20
14.09422724694506
30
0
10
14.227012926820915
20
14.00896101445452
30
0
10
13.77339744019906
20
14.00896101445452
30
0
0
LINE
5
103
100
AcDbEntity
8
0
100
AcDbLine
10
13.77339744019906
20
14.00896101445452
30
0
11
11.969168307367966
21
14.00896101445452
31
0
0
LINE
5
104
100
AcDbEntity
8
0
100
AcDbLine
10
11.969168307367966
20
14.00896101445452
30
0
11
11.969168307367964
21
19.008961014454513
31
0
0
LINE
5
105
100
AcDbEntity
8
0
100
AcDbLine
10
11.969168307367964
20
19.008961014454513
30
0
11
13.691542083505791
21
19.008961014454513
31
0
0
SPLINE
5
106
100
AcDbEntity
8
0
100
AcDbSpline
70
0
71
2
72
6
73
3
74
0
42
0.000000001
43
0.0000000001
44
0.0000000001
40
0
40
0
40
0
40
1
40
1
40
1
10
13.691542083505791
20
19.008961014454513
30
0
10
14.274761909727253
20
19.008961014454513
30
0
10
14.581719571832814
20
18.937337689106613
30
0
0
SPLINE
5
107
100
AcDbEntity
8
0
100
AcDbSpline
70
0
71
2
72
6
73
3
74
0
42
0.000000001
43
0.0000000001
44
0.0000000001
40
0
40
0
40
0
40
1
40
1
40
1
10
14.581719571832814
20
18.937337689106613
30
0
10
15.011460417989888
20
18.838428847496658
30
0
10
15.3150075023214
20
18.579220168297439
30
0
0
SPLINE
5
108
100
AcDbEntity
8
0
100
AcDbSpline
70
0
71
2
72
6
73
3
74
0
42
0.000000001
43
0.0000000001
44
0.0000000001
40
0
40
0
40
0
40
1
40
1
40
1
10
15.3150075023214
20
18.579220168297439
30
0
10
15.710641974691548
20
18.244977287953049
30
0
10
15.906753772977984
20
17.724854640667587
30
0
0
SPLINE
5
109
100
AcDbEntity
8
0
100
AcDbSpline
70
0
71
2
72
6
73
3
74
0
42
0.000000001
43
0.0000000001
44
0.0000000001
40
0
40
0
40
0
40
1
40
1
40
1
10
15.906753772977984
20
17.724854640667587
30
0
10
16.102865571264424
20
17.204731695358902
30
0
10
16.102865571264424
20
16.536246232693344
30
0
0
SPLINE
5
110
100
AcDbEntity
8
0
100
AcDbSpline
70
0
71
2
72
6
73
3
74
0
42
0.000000001
43
0.0000000001
44
0.0000000001
40
0
40
0
40
0
40
1
40
1
40
1
10
16.102865571264424
20
16.536246232693344
30
0
10
16.102865571264424
20
15.966669015591295
30
0
10
15.969850653890767
20
15.526696138088855
30
0
0
SPLINE
5
111
100
AcDbEntity
8
0
100
AcDbSpline
70
0
71
2
72
6
73
3
74
0
42
0.000000001
43
0.0000000001
44
0.0000000001
40
0
40
0
40
0
40
1
40
1
40
1
10
15.969850653890767
20
15.526696138088855
30
0
10
15.836835438493885
20
15.086723856632862
30
0
10
15.62878631997506
20
14.798524670307788
30
0
0
SPLINE
5
112
100
AcDbEntity
8
0
100
AcDbSpline
70
0
71
2
72
6
73
3
74
0
42
0.000000001
43
0.0000000001
44
0.0000000001
40
0
40
0
40
0
40
1
40
1
40
1
10
15.62878631997506
20
14.798524670307788
30
0
10
15.42073720145623
20
14.510325483982715
30
0
10
15.173465842489403
20
14.344908885662708
30
0
0
SPLINE
5
113
100
AcDbEntity
8
0
100
AcDbSpline
70
0
71
2
72
6
73
3
74
0
42
0.000000001
43
0.0000000001
44
0.0000000001
40
0
40
0
40
0
40
1
40
1
40
1
10
30.562278861288213
20
14.218715719883599
30
0
10
30.20245634961524
20
13.923694781963984
30
0
10
29.653343791250371
20
13.923694781963984
30
0
0
SPLINE
5
114
100
AcDbEntity
8
0
100
AcDbSpline
70
0
71
2
72
6
73
3
74
0
42
0.000000001
43
0.0000000001
44
0.0000000001
40
0
40
0
40
0
40
1
40
1
40
1
10
29.653343791250371
20
13.923694781963984
30
0
10
28.930286998037481
20
13.923694781963984
30
0
10
28.517599934820318
20
14.44211214036242
30
0
0
SPLINE
5
115
100
AcDbEntity
8
0
100
AcDbSpline
70
0
71
2
72
6
73
3
74
0
42
0.000000001
43
0.0000000001
44
0.0000000001
40
0
40
0
40
0
40
1
40
1
40
1
10
28.517599934820318
20
14.44211214036242
30
0
10
28.023056620840219
20
15.06625979394213
30
0
10
28.023056620840219
20
16.474854640667591
30
0
0
SPLINE
5
116
100
AcDbEntity
8
0
100
AcDbSpline
70
0
71
2
72
6
73
3
74
0
42
0.000000001
43
0.0000000001
44
0.0000000001
40
0
40
0
40
0
40
1
40
1
40
1
10
28.023056620840219
20
16.474854640667591
30
0
10
28.023056620840219
20
17.361621551220569
30
0
10
28.205525511984014
20
17.902207963173538
30
0
0
SPLINE
5
117
100
AcDbEntity
8
0
100
AcDbSpline
70
0
71
2
72
6
73
3
74
0
42
0.000000001
43
0.0000000001
44
0.0000000001
40
0
40
0
40
0
40
1
40
1
40
1
10
28.205525511984014
20
17.902207963173538
30
0
10
28.387995595220701
20
18.442794673149734
30
0
10
28.747818106893675
20
18.736109726135879
30
0
0
SPLINE
5
118
100
AcDbEntity
8
0
100
AcDbSpline
70
0
71
2
72
6
73
3
74
0
42
0.000000001
43
0.0000000001
44
0.0000000001
40
0
40
0
40
0
40
1
40
1
40
1
10
28.747818106893675
20
18.736109726135879
30
0
10
29.107640618566649
20
19.0294244810988
30
0
10
29.653343791250364
20
19.0294244810988
30
0
0
SPLINE
5
119
100
AcDbEntity
8
0
100
AcDbSpline
70
0
71
2
72
6
73
3
74
0
42
0.000000001
43
0.0000000001
44
0.0000000001
40
0
40
0
40
0
40
1
40
1
40
1
10
29.653343791250364
20
19.0294244810988
30
0
10
30.055799121145384
20
19.0294244810988
30
0
10
30.35934650350012
20
18.867419652645737
30
0
0
SPLINE
5
120
100
AcDbEntity
8
0
100
AcDbSpline
70
0
71
2
72
6
73
3
74
0
42
0.000000001
43
0.0000000001
44
0.0000000001
40
0
40
0
40
0
40
1
40
1
40
1
10
30.35934650350012
20
18.867419652645737
30
0
10
30.662893885854857
20
18.705413930123004
30
0
10
30.860709780935423
20
18.400161556904468
30
0
0
SPLINE
5
121
100
AcDbEntity
8
0
100
AcDbSpline
70
0
71
2
72
6
73
3
74
0
42
0.000000001
43
0.0000000001
44
0.0000000001
40
0
40
0
40
0
40
1
40
1
40
1
10
30.860709780935423
20
18.400161556904468
30
0
10
31.05852806020178
20
18.094909183685932
30
0
10
31.171078318838262
20
17.656641893093738
30
0
0
SPLINE
5
122
100
AcDbEntity
8
0
100
AcDbSpline
70
0
71
2
72
6
73
3
74
0
42
0.000000001
43
0.0000000001
44
0.0000000001
40
0
40
0
40
0
40
1
40
1
40
1
10
31.171078318838262
20
17.656641893093738
30
0
10
31.283629769567632
20
17.218374602501548
30
0
10
31.283629769567632
20
16.474854640667594
30
0
0
SPLINE
5
123
100
AcDbEntity
8
0
100
AcDbSpline
70
0
71
2
72
6
73
3
74
0
42
0.000000001
43
0.0000000001
44
0.0000000001
40
0
40
0
40
0
40
1
40
1
40
1
10
31.283629769567632
20
16.474854640667594
30
0
10
31.283629769567632
20
15.594909183685937
30
0
10
31.10286557126441
20
15.054322771732965
30
0
0
SPLINE
5
124
100
AcDbEntity
8
0
100
AcDbSpline
70
0
71
2
72
6
73
3
74
0
42
0.000000001
43
0.0000000001
44
0.0000000001
40
0
40
0
40
0
40
1
40
1
40
1
10
31.10286557126441
20
15.054322771732965
30
0
10
30.922102565054082
20
14.513736061756768
30
0
10
30.562278861288213
20
14.218715719883599
30
0
0
SPLINE
5
125
100
AcDbEntity
8
0
100
AcDbSpline
70
0
71
2
72
6
73
3
74
0
42
0.000000001
43
0.0000000001
44
0.0000000001
40
0
40
0
40
0
40
1
40
1
40
1
10
24.905730122808606
20
14.33979301900164
30
0
10
24.687449568990857
20
14.176082305615104
30
0
10
24.358322257284314
20
14.092521958058038
30
0
0
SPLINE
5
126
100
AcDbEntity
8
0
100
AcDbSpline
70
0
71
2
72
6
73
3
74
0
42
0.000000001
43
0.0000000001
44
0.0000000001
40
0
40
0
40
0
40
1
40
1
40
1
10
24.358322257284314
20
14.092521958058038
30
0
10
24.029194945577771
20
14.008961014454522
30
0
10
23.551705712560803
20
14.008961014454522
30
0
0
LINE
5
127
100
AcDbEntity
8
0
100
AcDbLine
10
23.55170571256081
20
14.008961014454522
30
0
11
21.645156974081196
21
14.008961014454522
31
0
0
LINE
5
128
100
AcDbEntity
8
0
100
AcDbLine
10
21.645156974081196
20
14.008961014454522
30
0
11
21.645156974081196
21
19.008961014454513
31
0
0
LINE
5
129
100
AcDbEntity
8
0
100
AcDbLine
10
21.645156974081196
20
19.008961014454513
30
0
11
23.521009320501474
21
19.008961014454513
31
0
0
SPLINE
5
130
100
AcDbEntity
8
0
100
AcDbSpline
70
0
71
2
72
6
73
3
74
0
42
0.000000001
43
0.0000000001
44
0.0000000001
40
0
40
0
40
0
40
1
40
1
40
1
10
23.521009320501474
20
19.008961014454513
30
0
10
24.093997115377572
20
19.008961014454513
30
0
10
24.440177315954354
20
18.857187621300369
30
0
0
SPLINE
5
131
100
AcDbEntity
8
0
100
AcDbSpline
70
0
71
2
72
6
73
3
74
0
42
0.000000001
43
0.0000000001
44
0.0000000001
40
0
40
0
40
0
40
1
40
1
40
1
10
24.440177315954354
20
18.857187621300369
30
0
10
24.786357516531137
20
18.705413930123001
30
0
10
24.982468718771127
20
18.389929525559097
30
0
0
SPLINE
5
132
100
AcDbEntity
8
0
100
AcDbSpline
70
0
71
2
72
6
73
3
74
0
42
0.000000001
43
0.0000000001
44
0.0000000001
40
0
40
0
40
0
40
1
40
1
40
1
10
24.982468718771127
20
18.389929525559097
30
0
10
25.178581113104009
20
18.074445419018417
30
0
10
25.178581113104013
20
17.729970507328659
30
0
0
SPLINE
5
133
100
AcDbEntity
8
0
100
AcDbSpline
70
0
71
2
72
6
73
3
74
0
42
0.000000001
43
0.0000000001
44
0.0000000001
40
0
40
0
40
0
40
1
40
1
40
1
10
25.178581113104013
20
17.729970507328659
30
0
10
25.178581113104013
20
17.409370236103687
30
0
10
25.004639262441781
20
17.126287214462909
30
0
0
SPLINE
5
134
100
AcDbEntity
8
0
100
AcDbSpline
70
0
71
2
72
6
73
3
74
0
42
0.000000001
43
0.0000000001
44
0.0000000001
40
0
40
0
40
0
40
1
40
1
40
1
10
25.004639262441781
20
17.126287214462909
30
0
10
24.830696219686658
20
16.843203894798908
30
0
10
24.479399556402356
20
16.669261150067005
30
0
0
SPLINE
5
135
100
AcDbEntity
8
0
100
AcDbSpline
70
0
71
2
72
6
73
3
74
0
42
0.000000001
43
0.0000000001
44
0.0000000001
40
0
40
0
40
0
40
1
40
1
40
1
10
24.479399556402356
20
16.669261150067005
30
0
10
24.933014745000989
20
16.536246232693347
30
0
10
25.176875228170541
20
16.215645961468372
30
0
0
SPLINE
5
136
100
AcDbEntity
8
0
100
AcDbSpline
70
0
71
2
72
6
73
3
74
0
42
0.000000001
43
0.0000000001
44
0.0000000001
40
0
40
0
40
0
40
1
40
1
40
1
10
25.176875228170541
20
16.215645961468372
30
0
10
25.420736903432992
20
15.895045690243396
30
0
10
25.420736903432992
20
15.458483390515006
30
0
0
SPLINE
5
137
100
AcDbEntity
8
0
100
AcDbSpline
70
0
71
2
72
6
73
3
74
0
42
0.000000001
43
0.0000000001
44
0.0000000001
40
0
40
0
40
0
40
1
40
1
40
1
10
25.420736903432992
20
15.458483390515006
30
0
10
25.420736903432992
20
15.107187323277152
30
0
10
25.272373790029672
20
14.805345825855888
30
0
0
SPLINE
5
138
100
AcDbEntity
8
0
100
AcDbSpline
70
0
71
2
72
6
73
3
74
0
42
0.000000001
43
0.0000000001
44
0.0000000001
40
0
40
0
40
0
40
1
40
1
40
1
10
25.272373790029672
20
14.805345825855888
30
0
10
25.124010676626352
20
14.503503732388175
30
0
10
24.905730122808606
20
14.33979301900164
30
0
0
LWPOLYLINE
5
139
100
AcDbEntity
8
0
100
AcDbPolyline
90
12
70
1
43
0.0
10
20.758390063528218
20
14.599001698200855
10
17.688813442472615
20
14.599001698200855
10
17.688813442472618
20
16.300911895935688
10
20.454843277219922
20
16.300911895935688
10
20.454843277219922
20
16.887542299931198
10
17.688813442472611
20
16.887542299931198
10
17.688813442472615
20
18.418920032684952
10
20.64242863107124
20
18.418920032684952
10
20.64242863107124
20
19.008961014454513
10
17.027148837331929
20
19.008961014454513
10
17.027148837331932
20
14.00896101445452
10
20.758390063528218
20
14.008961014454517
0
SPLINE
5
140
100
AcDbEntity
8
0
100
AcDbSpline
70
0
71
2
72
6
73
3
74
0
42
0.000000001
43
0.0000000001
44
0.0000000001
40
0
40
0
40
0
40
1
40
1
40
1
10
33.650614852193968
20
15.560802809899011
30
0
10
33.098091716055052
20
15.096955589955011
30
0
10
32.94120275426306
20
14.931539587681451
30
0
0
SPLINE
5
141
100
AcDbEntity
8
0
100
AcDbSpline
70
0
71
2
72
6
73
3
74
0
42
0.000000001
43
0.0000000001
44
0.0000000001
40
0
40
0
40
0
40
1
40
1
40
1
10
32.94120275426306
20
14.931539587681451
30
0
10
32.784313792471067
20
14.766123585407891
30
0
10
32.681994075063841
20
14.59900169820086
30
0
0
LINE
5
142
100
AcDbEntity
8
0
100
AcDbLine
10
32.681994075063848
20
14.59900169820086
30
0
11
35.13424360204138
21
14.59900169820086
31
0
0
LINE
5
143
100
AcDbEntity
8
0
100
AcDbLine
10
35.13424360204138
20
14.59900169820086
30
0
11
35.13424360204138
21
14.008961014454522
31
0
0
LINE
5
144
100
AcDbEntity
8
0
100
AcDbLine
10
35.13424360204138
20
14.008961014454522
30
0
11
31.829332942251341
21
14.008961014454524
31
0
0
SPLINE
5
145
100
AcDbEntity
8
0
100
AcDbSpline
70
0
71
2
72
6
73
3
74
0
42
0.000000001
43
0.0000000001
44
0.0000000001
40
0
40
0
40
0
40
1
40
1
40
1
10
31.829332942251341
20
14.008961014454524
30
0
10
31.822511786703245
20
14.230652742092767
30
0
10
31.900956267599241
20
14.435290984814324
30
0
0
SPLINE
5
146
100
AcDbEntity
8
0
100
AcDbSpline
70
0
71
2
72
6
73
3
74
0
42
0.000000001
43
0.0000000001
44
0.0000000001
40
0
40
0
40
0
40
1
40
1
40
1
10
31.900956267599241
20
14.435290984814324
30
0
10
32.027151221517698
20
14.772944740955987
30
0
10
32.305118674520628
20
15.100366167729058
30
0
0
SPLINE
5
147
100
AcDbEntity
8
0
100
AcDbSpline
70
0
71
2
72
6
73
3
74
0
42
0.000000001
43
0.0000000001
44
0.0000000001
40
0
40
0
40
0
40
1
40
1
40
1
10
32.305118674520628
20
15.100366167729058
30
0
10
32.583083743337767
20
15.42778759450213
30
0
10
33.108324641470091
20
15.857528738682426
30
0
0
SPLINE
5
148
100
AcDbEntity
8
0
100
AcDbSpline
70
0
71
2
72
6
73
3
74
0
42
0.000000001
43
0.0000000001
44
0.0000000001
40
0
40
0
40
0
40
1
40
1
40
1
10
33.108324641470091
20
15.857528738682426
30
0
10
33.923465842489378
20
16.526014201347984
30
0
10
34.209961528066771
20
16.916532509033836
30
0
0
SPLINE
5
149
100
AcDbEntity
8
0
100
AcDbSpline
70
0
71
2
72
6
73
3
74
0
42
0.000000001
43
0.0000000001
44
0.0000000001
40
0
40
0
40
0
40
1
40
1
40
1
10
34.209961528066771
20
16.916532509033836
30
0
10
34.496454829458372
20
17.307051114742912
30
0
10
34.496454829458372
20
17.654936604206714
30
0
0
SPLINE
5
150
100
AcDbEntity
8
0
100
AcDbSpline
70
0
71
2
72
6
73
3
74
0
42
0.000000001
43
0.0000000001
44
0.0000000001
40
0
40
0
40
0
40
1
40
1
40
1
10
34.496454829458372
20
17.654936604206714
30
0
10
34.496454829458372
20
18.01987498254076
30
0
10
34.235541457418577
20
18.270557217304859
30
0
0
SPLINE
5
151
100
AcDbEntity
8
0
100
AcDbSpline
70
0
71
2
72
6
73
3
74
0
42
0.000000001
43
0.0000000001
44
0.0000000001
40
0
40
0
40
0
40
1
40
1
40
1
10
34.235541457418577
20
18.270557217304859
30
0
10
33.974625701192991
20
18.521239452068958
30
0
10
33.555116290334837
20
18.521239452068958
30
0
0
SPLINE
5
152
100
AcDbEntity
8
0
100
AcDbSpline
70
0
71
2
72
6
73
3
74
0
42
0.000000001
43
0.0000000001
44
0.0000000001
40
0
40
0
40
0
40
1
40
1
40
1
10
33.555116290334837
20
18.521239452068958
30
0
10
33.111734027151243
20
18.521239452068958
30
0
10
32.845704192403929
20
18.25520931929842
30
0
0
SPLINE
5
153
100
AcDbEntity
8
0
100
AcDbSpline
70
0
71
2
72
6
73
3
74
0
42
0.000000001
43
0.0000000001
44
0.0000000001
40
0
40
0
40
0
40
1
40
1
40
1
10
32.845704192403929
20
18.25520931929842
30
0
10
32.579674357656614
20
17.989179186527881
30
0
10
32.576262587789671
20
17.518510811035785
30
0
0
LINE
5
154
100
AcDbEntity
8
0
100
AcDbLine
10
32.576262587789671
20
17.518510811035785
30
0
11
31.945294970754755
21
17.58331298083559
31
0
0
SPLINE
5
155
100
AcDbEntity
8
0
100
AcDbSpline
70
0
71
2
72
6
73
3
74
0
42
0.000000001
43
0.0000000001
44
0.0000000001
40
0
40
0
40
0
40
1
40
1
40
1
10
31.945294970754755
20
17.58331298083559
30
0
10
32.010097140554564
20
18.289315693085346
30
0
10
32.43301593709387
20
18.659370236103687
30
0
0
SPLINE
5
156
100
AcDbEntity
8
0
100
AcDbSpline
70
0
71
2
72
6
73
3
74
0
42
0.000000001
43
0.0000000001
44
0.0000000001
40
0
40
0
40
0
40
1
40
1
40
1
10
32.43301593709387
20
18.659370236103687
30
0
10
32.855937117818968
20
19.029425077145252
30
0
10
33.568760985616819
20
19.029425077145252
30
0
0
SPLINE
5
157
100
AcDbEntity
8
0
100
AcDbSpline
70
0
71
2
72
6
73
3
74
0
42
0.000000001
43
0.0000000001
44
0.0000000001
40
0
40
0
40
0
40
1
40
1
40
1
10
33.568760985616819
20
19.029425077145252
30
0
10
34.288406008962767
20
19.029425077145252
30
0
10
34.70791303563513
20
18.630379728977832
30
0
0
SPLINE
5
158
100
AcDbEntity
8
0
100
AcDbSpline
70
0
71
2
72
6
73
3
74
0
42
0.000000001
43
0.0000000001
44
0.0000000001
40
0
40
0
40
0
40
1
40
1
40
1
10
34.70791303563513
20
18.630379728977832
30
0
10
35.127422446493277
20
18.231334976856861
30
0
10
35.127422446493277
20
17.641293995087299
30
0
0
SPLINE
5
159
100
AcDbEntity
8
0
100
AcDbSpline
70
0
71
2
72
6
73
3
74
0
42
0.000000001
43
0.0000000001
44
0.0000000001
40
0
40
0
40
0
40
1
40
1
40
1
10
35.127422446493277
20
17.641293995087299
30
0
10
35.127422446493277
20
17.341157488529838
30
0
10
35.004639262441763
20
17.051253013317741
30
0
0
SPLINE
5
160
100
AcDbEntity
8
0
100
AcDbSpline
70
0
71
2
72
6
73
3
74
0
42
0.000000001
43
0.0000000001
44
0.0000000001
40
0
40
0
40
0
40
1
40
1
40
1
10
35.004639262441763
20
17.051253013317741
30
0
10
34.881856078390257
20
16.761348538105644
30
0
10
34.597067469839232
20
16.440748266880668
30
0
0
SPLINE
5
161
100
AcDbEntity
8
0
100
AcDbSpline
70
0
71
2
72
6
73
3
74
0
42
0.000000001
43
0.0000000001
44
0.0000000001
40
0
40
0
40
0
40
1
40
1
40
1
10
34.597067469839232
20
16.440748266880668
30
0
10
34.312278861288206
20
16.120147995655692
30
0
10
33.650614852193968
20
15.560802809899011
30
0
0
CIRCLE
5
162
100
AcDbEntity
8
0
100
AcDbCircle
10
46.999999999999943
20
32.999999999999957
30
0
40
2.7499999999999996
210
0
220
0
230
1
0
LWPOLYLINE
5
163
100
AcDbEntity
8
0
100
AcDbPolyline
90
24
70
1
43
0.0
10
3.5000000447034791
20
9.9999999999999858
10
3.5000000447034791
20
19.999999999999972
10
4.4703483137453699e-08
20
19.999999999999972
10
-6.106226635438361e-15
20
26.499999999999968
10
3.5000000447034791
20
26.499999999999968
10
3.5000000447034729
20
29.999999999999961
10
43.999999999999943
20
29.999999999999961
10
43.999999999999943
20
35.99999999999995
10
49.999999999999929
20
35.99999999999995
10
49.999999999999929
20
29.999999999999961
10
46.499999999999943
20
29.999999999999961
10
46.499999999999929
20
26.499999999999964
10
49.999999999999929
20
26.499999999999964
10
49.999999999999929
20
19.999999999999972
10
46.499999999999943
20
19.999999999999972
10
46.499999999999929
20
9.9999999999999893
10
49.999999999999929
20
9.9999999999999858
10
49.999999999999929
20
3.5000000000000018
10
33.333333333333286
20
3.4999999999999964
10
33.333333333333286
20
0
10
16.666666666666639
20
0
10
16.666666666666639
20
3.499999999999996
10
0
20
3.4999999999999956
10
0
20
9.9999999999999858
0
ENDSEC
0
SECTION
2
OBJECTS
0
DICTIONARY
5
C
100
AcDbDictionary
3
ACAD_GROUP
350
D
3
ACAD_MLINESTYLE
350
17
0
DICTIONARY
5
D
100
AcDbDictionary
0
DICTIONARY
5
1A
330
C
100
AcDbDictionary
0
DICTIONARY
5
17
100
AcDbDictionary
0
ENDSEC
0
EOF
