0
SECTION
2
HEADER
9
$INSUNITS
70
4
9
$ACADVER
1
AC1014
9
$HANDSEED
5
FFFF
0
ENDSEC
0
SECTION
2
TABLES
0
TABLE
2
VPORT
5
8
100
AcDbSymbolTable
0
ENDTAB
0
TABLE
2
LTYPE
5
5
100
AcDbSymbolTable
0
LTYPE
5
14
100
AcDbSymbolTableRecord
100
AcDbLinetypeTableRecord
2
BYBLOCK
70
0
0
LTYPE
5
15
100
AcDbSymbolTableRecord
100
AcDbLinetypeTableRecord
2
BYLAYER
70
0
0
ENDTAB
0
TABLE
2
LAYER
5
2
100
AcDbSymbolTable
70
2
0
LAYER
5
50
100
AcDbSymbolTableRecord
100
AcDbLayerTableRecord
2
0
70
0
6
CONTINUOUS
0
ENDTAB
0
TABLE
2
STYLE
5
3
100
AcDbSymbolTable
70
1
0
STYLE
5
11
100
AcDbSymbolTableRecord
100
AcDbTextStyleTableRecord
2
STANDARD
70
0
0
ENDTAB
0
TABLE
2
VIEW
5
6
100
AcDbSymbolTable
70
0
0
ENDTAB
0
TABLE
2
UCS
5
7
100
AcDbSymbolTable
70
0
0
ENDTAB
0
TABLE
2
APPID
5
9
100
AcDbSymbolTable
70
2
0
APPID
5
12
100
AcDbSymbolTableRecord
100
AcDbRegAppTableRecord
2
ACAD
70
0
0
ENDTAB
0
TABLE
2
DIMSTYLE
5
A
100
AcDbSymbolTable
70
1
0
ENDTAB
0
TABLE
2
BLOCK_RECORD
5
1
100
AcDbSymbolTable
70
1
0
BLOCK_RECORD
5
1F
100
AcDbSymbolTableRecord
100
AcDbBlockTableRecord
2
*MODEL_SPACE
0
BLOCK_RECORD
5
1B
100
AcDbSymbolTableRecord
100
AcDbBlockTableRecord
2
*PAPER_SPACE
0
ENDTAB
0
ENDSEC
0
SECTION
2
BLOCKS
0
BLOCK
5
20
100
AcDbEntity
100
AcDbBlockBegin
2
*MODEL_SPACE
0
ENDBLK
5
21
100
AcDbEntity
100
AcDbBlockEnd
0
BLOCK
5
1C
100
AcDbEntity
100
AcDbBlockBegin
2
*PAPER_SPACE
0
ENDBLK
5
1D
100
AcDbEntity
100
AcDbBlockEnd
0
ENDSEC
0
SECTION
2
ENTITIES
0
LWPOLYLINE
5
100
100
AcDbEntity
8
0
100
AcDbPolyline
90
24
70
1
43
0.0
10
0
20
3.5
10
-16.666666666666664
20
3.5000000000000004
10
-16.666666666666664
20
0
10
-33.333333333333329
20
0
10
-33.333333333333329
20
3.5000000000000009
10
-50
20
3.5000000000000062
10
-50
20
10
10
-46.5
20
10.000000000000002
10
-46.5
20
20
10
-50
20
20
10
-50
20
26.5
10
-46.5
20
26.5
10
-46.5
20
30
10
-50
20
30
10
-50
20
36
10
-44
20
36
10
-44
20
30
10
-3.500000044703484
20
30
10
-3.5000000447034836
20
26.500000000000004
10
6.2778622946603167e-15
20
26.500000000000004
10
-4.4703483137453759e-08
20
20
10
-3.5000000447034836
20
20
10
-3.5000000447034836
20
10
10
0
20
10
0
CIRCLE
5
101
100
AcDbEntity
8
0
100
AcDbCircle
10
-47
20
33
30
0
40
2.7500000000000036
210
0
220
-0
230
1
0
SPLINE
5
102
100
AcDbEntity
8
0
100
AcDbSpline
70
0
71
2
72
6
73
3
74
0
42
0.000000001
43
0.0000000001
44
0.0000000001
40
0
40
0
40
0
40
1
40
1
40
1
10
-10.234209962663794
20
17.876531549831036
30
0
10
-9.8488063295461181
20
18.22100616349757
30
0
10
-9.6885079820729736
20
18.545017310519817
30
0
0
LINE
5
103
100
AcDbEntity
8
0
100
AcDbLine
10
-9.6885079820729736
20
18.545017310519817
30
0
11
-9.2928738077260498
21
18.545017310519817
31
0
0
LINE
5
104
100
AcDbEntity
8
0
100
AcDbLine
10
-9.2928738077260498
20
18.545017310519817
30
0
11
-9.2928738077260498
21
13.524553247829081
31
0
0
LINE
5
105
100
AcDbEntity
8
0
100
AcDbLine
10
-9.2928738077260498
20
13.524553247829081
30
0
11
-9.9067873437978271
21
13.524553247829081
31
0
0
LINE
5
106
100
AcDbEntity
8
0
100
AcDbLine
10
-9.9067873437978271
20
13.524553247829081
30
0
11
-9.9067873437978271
21
17.436558672328594
31
0
0
SPLINE
5
107
100
AcDbEntity
8
0
100
AcDbSpline
70
0
71
2
72
6
73
3
74
0
42
0.000000001
43
0.0000000001
44
0.0000000001
40
0
40
0
40
0
40
1
40
1
40
1
10
-9.9067873437978271
20
17.436558672328594
30
0
10
-10.128480859575415
20
17.225098976035717
30
0
10
-10.488302179155493
20
17.01363927974284
30
0
0
SPLINE
5
108
100
AcDbEntity
8
0
100
AcDbSpline
70
0
71
2
72
6
73
3
74
0
42
0.000000001
43
0.0000000001
44
0.0000000001
40
0
40
0
40
0
40
1
40
1
40
1
10
-10.488302179155493
20
17.01363927974284
30
0
10
-10.848125882921362
20
16.802179583449963
30
0
10
-11.134619184312964
20
16.696449586291912
30
0
0
LINE
5
109
100
AcDbEntity
8
0
100
AcDbLine
10
-11.134619184312964
20
16.696449586291912
30
0
11
-11.134619184312964
21
17.289901145835522
31
0
0
SPLINE
5
110
100
AcDbEntity
8
0
100
AcDbSpline
70
0
71
2
72
6
73
3
74
0
42
0.000000001
43
0.0000000001
44
0.0000000001
40
0
40
0
40
0
40
1
40
1
40
1
10
-11.134619184312964
20
17.289901145835522
30
0
10
-10.619611211595679
20
17.532056638141277
30
0
10
-10.234209962663794
20
17.876531549831036
30
0
0
SPLINE
5
111
100
AcDbEntity
8
0
100
AcDbSpline
70
0
71
2
72
6
73
3
74
0
42
0.000000001
43
0.0000000001
44
0.0000000001
40
0
40
0
40
0
40
1
40
1
40
1
10
-22.660878368196631
20
13.734307953258158
30
0
10
-23.020700879869604
20
13.439287015338541
30
0
10
-23.569814630327368
20
13.439287015338541
30
0
0
SPLINE
5
112
100
AcDbEntity
8
0
100
AcDbSpline
70
0
71
2
72
6
73
3
74
0
42
0.000000001
43
0.0000000001
44
0.0000000001
40
0
40
0
40
0
40
1
40
1
40
1
10
-23.569814630327368
20
13.439287015338541
30
0
10
-24.292870231447363
20
13.439287015338541
30
0
10
-24.705557294664526
20
13.957704373736979
30
0
0
SPLINE
5
113
100
AcDbEntity
8
0
100
AcDbSpline
70
0
71
2
72
6
73
3
74
0
42
0.000000001
43
0.0000000001
44
0.0000000001
40
0
40
0
40
0
40
1
40
1
40
1
10
-24.705557294664526
20
13.957704373736979
30
0
10
-25.200100608644629
20
14.581852027316691
30
0
10
-25.200100608644629
20
15.990446874042155
30
0
0
SPLINE
5
114
100
AcDbEntity
8
0
100
AcDbSpline
70
0
71
2
72
6
73
3
74
0
42
0.000000001
43
0.0000000001
44
0.0000000001
40
0
40
0
40
0
40
1
40
1
40
1
10
-25.200100608644629
20
15.990446874042155
30
0
10
-25.200100608644629
20
16.877213784595135
30
0
10
-25.01763171750083
20
17.417800196548107
30
0
0
SPLINE
5
115
100
AcDbEntity
8
0
100
AcDbSpline
70
0
71
2
72
6
73
3
74
0
42
0.000000001
43
0.0000000001
44
0.0000000001
40
0
40
0
40
0
40
1
40
1
40
1
10
-25.01763171750083
20
17.417800196548107
30
0
10
-24.835161634264136
20
17.958386906524304
30
0
10
-24.475339122591162
20
18.251701959510449
30
0
0
SPLINE
5
116
100
AcDbEntity
8
0
100
AcDbSpline
70
0
71
2
72
6
73
3
74
0
42
0.000000001
43
0.0000000001
44
0.0000000001
40
0
40
0
40
0
40
1
40
1
40
1
10
-24.475339122591162
20
18.251701959510449
30
0
10
-24.115516610918188
20
18.54501671447337
30
0
10
-23.569814630327368
20
18.54501671447337
30
0
0
SPLINE
5
117
100
AcDbEntity
8
0
100
AcDbSpline
70
0
71
2
72
6
73
3
74
0
42
0.000000001
43
0.0000000001
44
0.0000000001
40
0
40
0
40
0
40
1
40
1
40
1
10
-23.569814630327368
20
18.54501671447337
30
0
10
-23.167358108339453
20
18.54501671447337
30
0
10
-22.863810725984717
20
18.383011886020306
30
0
0
SPLINE
5
118
100
AcDbEntity
8
0
100
AcDbSpline
70
0
71
2
72
6
73
3
74
0
42
0.000000001
43
0.0000000001
44
0.0000000001
40
0
40
0
40
0
40
1
40
1
40
1
10
-22.863810725984717
20
18.383011886020306
30
0
10
-22.560264535722876
20
18.22100616349757
30
0
10
-22.362446256456519
20
17.915753790279034
30
0
0
SPLINE
5
119
100
AcDbEntity
8
0
100
AcDbSpline
70
0
71
2
72
6
73
3
74
0
42
0.000000001
43
0.0000000001
44
0.0000000001
40
0
40
0
40
0
40
1
40
1
40
1
10
-22.362446256456519
20
17.915753790279034
30
0
10
-22.164630361375952
20
17.610501417060497
30
0
10
-22.052077718553686
20
17.172234126468304
30
0
0
SPLINE
5
120
100
AcDbEntity
8
0
100
AcDbSpline
70
0
71
2
72
6
73
3
74
0
42
0.000000001
43
0.0000000001
44
0.0000000001
40
0
40
0
40
0
40
1
40
1
40
1
10
-22.052077718553686
20
17.172234126468304
30
0
10
-21.939527459917212
20
16.73396683587611
30
0
10
-21.939527459917212
20
15.990446874042155
30
0
0
SPLINE
5
121
100
AcDbEntity
8
0
100
AcDbSpline
70
0
71
2
72
6
73
3
74
0
42
0.000000001
43
0.0000000001
44
0.0000000001
40
0
40
0
40
0
40
1
40
1
40
1
10
-21.939527459917212
20
15.990446874042155
30
0
10
-21.939527459917212
20
15.110501417060496
30
0
10
-22.120291658220435
20
14.569915005107523
30
0
0
SPLINE
5
122
100
AcDbEntity
8
0
100
AcDbSpline
70
0
71
2
72
6
73
3
74
0
42
0.000000001
43
0.0000000001
44
0.0000000001
40
0
40
0
40
0
40
1
40
1
40
1
10
-22.120291658220435
20
14.569915005107523
30
0
10
-22.301055856523657
20
14.029328295131327
30
0
10
-22.660878368196631
20
13.734307953258158
30
0
0
LWPOLYLINE
5
123
100
AcDbEntity
8
0
100
AcDbPolyline
90
12
70
1
43
0.0
10
-38.293553062257914
20
14.114593931575419
10
-41.36313035386577
20
14.114593931575419
10
-41.36313035386577
20
15.816504129310252
10
-38.59710044461265
20
15.816504129310252
10
-38.59710044461265
20
16.403134533305767
10
-41.36313035386577
20
16.403134533305767
10
-41.36313035386577
20
17.934512266059521
10
-38.409515090761332
20
17.934512266059521
10
-38.409515090761332
20
18.524553247829083
10
-42.024794735489039
20
18.524553247829083
10
-42.024794735489039
20
13.524553247829081
10
-38.293553062257914
20
13.524553247829081
0
SPLINE
5
124
100
AcDbEntity
8
0
100
AcDbSpline
70
0
71
2
72
6
73
3
74
0
42
0.000000001
43
0.0000000001
44
0.0000000001
40
0
40
0
40
0
40
1
40
1
40
1
10
-26.54559917050376
20
13.734307953258158
30
0
10
-26.905421682176733
20
13.439287015338541
30
0
10
-27.454535432634497
20
13.439287015338541
30
0
0
SPLINE
5
125
100
AcDbEntity
8
0
100
AcDbSpline
70
0
71
2
72
6
73
3
74
0
42
0.000000001
43
0.0000000001
44
0.0000000001
40
0
40
0
40
0
40
1
40
1
40
1
10
-27.454535432634497
20
13.439287015338541
30
0
10
-28.177591033754492
20
13.439287015338541
30
0
10
-28.590278096971655
20
13.957704373736979
30
0
0
SPLINE
5
126
100
AcDbEntity
8
0
100
AcDbSpline
70
0
71
2
72
6
73
3
74
0
42
0.000000001
43
0.0000000001
44
0.0000000001
40
0
40
0
40
0
40
1
40
1
40
1
10
-28.590278096971655
20
13.957704373736979
30
0
10
-29.084821410951758
20
14.581852027316691
30
0
10
-29.084821410951758
20
15.990446874042155
30
0
0
SPLINE
5
127
100
AcDbEntity
8
0
100
AcDbSpline
70
0
71
2
72
6
73
3
74
0
42
0.000000001
43
0.0000000001
44
0.0000000001
40
0
40
0
40
0
40
1
40
1
40
1
10
-29.084821410951758
20
15.990446874042155
30
0
10
-29.084821410951758
20
16.877213784595135
30
0
10
-28.902352519807959
20
17.417800196548107
30
0
0
SPLINE
5
128
100
AcDbEntity
8
0
100
AcDbSpline
70
0
71
2
72
6
73
3
74
0
42
0.000000001
43
0.0000000001
44
0.0000000001
40
0
40
0
40
0
40
1
40
1
40
1
10
-28.902352519807959
20
17.417800196548107
30
0
10
-28.719882436571265
20
17.958386906524304
30
0
10
-28.360059924898291
20
18.251701959510449
30
0
0
SPLINE
5
129
100
AcDbEntity
8
0
100
AcDbSpline
70
0
71
2
72
6
73
3
74
0
42
0.000000001
43
0.0000000001
44
0.0000000001
40
0
40
0
40
0
40
1
40
1
40
1
10
-28.360059924898291
20
18.251701959510449
30
0
10
-28.000237413225317
20
18.54501671447337
30
0
10
-27.454535432634497
20
18.54501671447337
30
0
0
SPLINE
5
130
100
AcDbEntity
8
0
100
AcDbSpline
70
0
71
2
72
6
73
3
74
0
42
0.000000001
43
0.0000000001
44
0.0000000001
40
0
40
0
40
0
40
1
40
1
40
1
10
-27.454535432634497
20
18.54501671447337
30
0
10
-27.052078910646582
20
18.54501671447337
30
0
10
-26.748531528291846
20
18.383011886020306
30
0
0
SPLINE
5
131
100
AcDbEntity
8
0
100
AcDbSpline
70
0
71
2
72
6
73
3
74
0
42
0.000000001
43
0.0000000001
44
0.0000000001
40
0
40
0
40
0
40
1
40
1
40
1
10
-26.748531528291846
20
18.383011886020306
30
0
10
-26.444985338030005
20
18.22100616349757
30
0
10
-26.247167058763647
20
17.915753790279034
30
0
0
SPLINE
5
132
100
AcDbEntity
8
0
100
AcDbSpline
70
0
71
2
72
6
73
3
74
0
42
0.000000001
43
0.0000000001
44
0.0000000001
40
0
40
0
40
0
40
1
40
1
40
1
10
-26.247167058763647
20
17.915753790279034
30
0
10
-26.049351163683081
20
17.610501417060497
30
0
10
-25.936799712953711
20
17.172234126468304
30
0
0
SPLINE
5
133
100
AcDbEntity
8
0
100
AcDbSpline
70
0
71
2
72
6
73
3
74
0
42
0.000000001
43
0.0000000001
44
0.0000000001
40
0
40
0
40
0
40
1
40
1
40
1
10
-25.936799712953711
20
17.172234126468304
30
0
10
-25.824248262224341
20
16.73396683587611
30
0
10
-25.824248262224341
20
15.990446874042155
30
0
0
SPLINE
5
134
100
AcDbEntity
8
0
100
AcDbSpline
70
0
71
2
72
6
73
3
74
0
42
0.000000001
43
0.0000000001
44
0.0000000001
40
0
40
0
40
0
40
1
40
1
40
1
10
-25.824248262224341
20
15.990446874042155
30
0
10
-25.824248262224341
20
15.110501417060496
30
0
10
-26.005012460527563
20
14.569915005107523
30
0
0
SPLINE
5
135
100
AcDbEntity
8
0
100
AcDbSpline
70
0
71
2
72
6
73
3
74
0
42
0.000000001
43
0.0000000001
44
0.0000000001
40
0
40
0
40
0
40
1
40
1
40
1
10
-26.005012460527563
20
14.569915005107523
30
0
10
-26.185776658830786
20
14.029328295131327
30
0
10
-26.54559917050376
20
13.734307953258158
30
0
0
SPLINE
5
136
100
AcDbEntity
8
0
100
AcDbSpline
70
0
71
2
72
6
73
3
74
0
42
0.000000001
43
0.0000000001
44
0.0000000001
40
0
40
0
40
0
40
1
40
1
40
1
10
-12.95078224736228
20
13.734307953258158
30
0
10
-13.310603566942358
20
13.439287015338541
30
0
10
-13.859717317400122
20
13.439287015338541
30
0
0
SPLINE
5
137
100
AcDbEntity
8
0
100
AcDbSpline
70
0
71
2
72
6
73
3
74
0
42
0.000000001
43
0.0000000001
44
0.0000000001
40
0
40
0
40
0
40
1
40
1
40
1
10
-13.859717317400122
20
13.439287015338541
30
0
10
-14.582774110613013
20
13.439287015338541
30
0
10
-14.995462365923071
20
13.957704373736979
30
0
0
SPLINE
5
138
100
AcDbEntity
8
0
100
AcDbSpline
70
0
71
2
72
6
73
3
74
0
42
0.000000001
43
0.0000000001
44
0.0000000001
40
0
40
0
40
0
40
1
40
1
40
1
10
-14.995462365923071
20
13.957704373736979
30
0
10
-15.490004487810278
20
14.581852027316691
30
0
10
-15.490004487810278
20
15.990446874042155
30
0
0
SPLINE
5
139
100
AcDbEntity
8
0
100
AcDbSpline
70
0
71
2
72
6
73
3
74
0
42
0.000000001
43
0.0000000001
44
0.0000000001
40
0
40
0
40
0
40
1
40
1
40
1
10
-15.490004487810278
20
15.990446874042155
30
0
10
-15.490004487810278
20
16.877213784595135
30
0
10
-15.307535596666479
20
17.417800196548107
30
0
0
SPLINE
5
140
100
AcDbEntity
8
0
100
AcDbSpline
70
0
71
2
72
6
73
3
74
0
42
0.000000001
43
0.0000000001
44
0.0000000001
40
0
40
0
40
0
40
1
40
1
40
1
10
-15.307535596666479
20
17.417800196548107
30
0
10
-15.125066705522681
20
17.958386906524304
30
0
10
-14.765243001756811
20
18.251701959510449
30
0
0
SPLINE
5
141
100
AcDbEntity
8
0
100
AcDbSpline
70
0
71
2
72
6
73
3
74
0
42
0.000000001
43
0.0000000001
44
0.0000000001
40
0
40
0
40
0
40
1
40
1
40
1
10
-14.765243001756811
20
18.251701959510449
30
0
10
-14.405421682176733
20
18.54501671447337
30
0
10
-13.859717317400122
20
18.54501671447337
30
0
0
SPLINE
5
142
100
AcDbEntity
8
0
100
AcDbSpline
70
0
71
2
72
6
73
3
74
0
42
0.000000001
43
0.0000000001
44
0.0000000001
40
0
40
0
40
0
40
1
40
1
40
1
10
-13.859717317400122
20
18.54501671447337
30
0
10
-13.457261987505102
20
18.54501671447337
30
0
10
-13.153714605150366
20
18.383011886020306
30
0
0
SPLINE
5
143
100
AcDbEntity
8
0
100
AcDbSpline
70
0
71
2
72
6
73
3
74
0
42
0.000000001
43
0.0000000001
44
0.0000000001
40
0
40
0
40
0
40
1
40
1
40
1
10
-13.153714605150366
20
18.383011886020306
30
0
10
-12.85016722279563
20
18.22100616349757
30
0
10
-12.652351327715063
20
17.915753790279034
30
0
0
SPLINE
5
144
100
AcDbEntity
8
0
100
AcDbSpline
70
0
71
2
72
6
73
3
74
0
42
0.000000001
43
0.0000000001
44
0.0000000001
40
0
40
0
40
0
40
1
40
1
40
1
10
-12.652351327715063
20
17.915753790279034
30
0
10
-12.454533048448706
20
17.610501417060497
30
0
10
-12.341982789812231
20
17.172234126468304
30
0
0
SPLINE
5
145
100
AcDbEntity
8
0
100
AcDbSpline
70
0
71
2
72
6
73
3
74
0
42
0.000000001
43
0.0000000001
44
0.0000000001
40
0
40
0
40
0
40
1
40
1
40
1
10
-12.341982789812231
20
17.172234126468304
30
0
10
-12.229432531175757
20
16.73396683587611
30
0
10
-12.229432531175757
20
15.990446874042155
30
0
0
SPLINE
5
146
100
AcDbEntity
8
0
100
AcDbSpline
70
0
71
2
72
6
73
3
74
0
42
0.000000001
43
0.0000000001
44
0.0000000001
40
0
40
0
40
0
40
1
40
1
40
1
10
-12.229432531175757
20
15.990446874042155
30
0
10
-12.229432531175757
20
15.110501417060496
30
0
10
-12.410194345293188
20
14.569915005107523
30
0
0
SPLINE
5
147
100
AcDbEntity
8
0
100
AcDbSpline
70
0
71
2
72
6
73
3
74
0
42
0.000000001
43
0.0000000001
44
0.0000000001
40
0
40
0
40
0
40
1
40
1
40
1
10
-12.410194345293188
20
14.569915005107523
30
0
10
-12.590958543596411
20
14.029328295131327
30
0
10
-12.95078224736228
20
13.734307953258158
30
0
0
SPLINE
5
148
100
AcDbEntity
8
0
100
AcDbSpline
70
0
71
2
72
6
73
3
74
0
42
0.000000001
43
0.0000000001
44
0.0000000001
40
0
40
0
40
0
40
1
40
1
40
1
10
-18.776158757982397
20
13.734307953258158
30
0
10
-19.135980077562476
20
13.439287015338541
30
0
10
-19.685093828020239
20
13.439287015338541
30
0
0
SPLINE
5
149
100
AcDbEntity
8
0
100
AcDbSpline
70
0
71
2
72
6
73
3
74
0
42
0.000000001
43
0.0000000001
44
0.0000000001
40
0
40
0
40
0
40
1
40
1
40
1
10
-19.685093828020239
20
13.439287015338541
30
0
10
-20.40815062123313
20
13.439287015338541
30
0
10
-20.820838876543188
20
13.957704373736979
30
0
0
SPLINE
5
150
100
AcDbEntity
8
0
100
AcDbSpline
70
0
71
2
72
6
73
3
74
0
42
0.000000001
43
0.0000000001
44
0.0000000001
40
0
40
0
40
0
40
1
40
1
40
1
10
-20.820838876543188
20
13.957704373736979
30
0
10
-21.315380998430395
20
14.581852027316691
30
0
10
-21.315380998430395
20
15.990446874042155
30
0
0
SPLINE
5
151
100
AcDbEntity
8
0
100
AcDbSpline
70
0
71
2
72
6
73
3
74
0
42
0.000000001
43
0.0000000001
44
0.0000000001
40
0
40
0
40
0
40
1
40
1
40
1
10
-21.315380998430395
20
15.990446874042155
30
0
10
-21.315380998430395
20
16.877213784595135
30
0
10
-21.132912107286597
20
17.417800196548107
30
0
0
SPLINE
5
152
100
AcDbEntity
8
0
100
AcDbSpline
70
0
71
2
72
6
73
3
74
0
42
0.000000001
43
0.0000000001
44
0.0000000001
40
0
40
0
40
0
40
1
40
1
40
1
10
-21.132912107286597
20
17.417800196548107
30
0
10
-20.950443216142798
20
17.958386906524304
30
0
10
-20.590619512376929
20
18.251701959510449
30
0
0
SPLINE
5
153
100
AcDbEntity
8
0
100
AcDbSpline
70
0
71
2
72
6
73
3
74
0
42
0.000000001
43
0.0000000001
44
0.0000000001
40
0
40
0
40
0
40
1
40
1
40
1
10
-20.590619512376929
20
18.251701959510449
30
0
10
-20.230798192796851
20
18.54501671447337
30
0
10
-19.685093828020239
20
18.54501671447337
30
0
0
SPLINE
5
154
100
AcDbEntity
8
0
100
AcDbSpline
70
0
71
2
72
6
73
3
74
0
42
0.000000001
43
0.0000000001
44
0.0000000001
40
0
40
0
40
0
40
1
40
1
40
1
10
-19.685093828020239
20
18.54501671447337
30
0
10
-19.28263849812522
20
18.54501671447337
30
0
10
-18.979091115770483
20
18.383011886020306
30
0
0
SPLINE
5
155
100
AcDbEntity
8
0
100
AcDbSpline
70
0
71
2
72
6
73
3
74
0
42
0.000000001
43
0.0000000001
44
0.0000000001
40
0
40
0
40
0
40
1
40
1
40
1
10
-18.979091115770483
20
18.383011886020306
30
0
10
-18.675543733415747
20
18.22100616349757
30
0
10
-18.477727838335181
20
17.915753790279034
30
0
0
SPLINE
5
156
100
AcDbEntity
8
0
100
AcDbSpline
70
0
71
2
72
6
73
3
74
0
42
0.000000001
43
0.0000000001
44
0.0000000001
40
0
40
0
40
0
40
1
40
1
40
1
10
-18.477727838335181
20
17.915753790279034
30
0
10
-18.279909559068823
20
17.610501417060497
30
0
10
-18.167359300432349
20
17.172234126468304
30
0
0
SPLINE
5
157
100
AcDbEntity
8
0
100
AcDbSpline
70
0
71
2
72
6
73
3
74
0
42
0.000000001
43
0.0000000001
44
0.0000000001
40
0
40
0
40
0
40
1
40
1
40
1
10
-18.167359300432349
20
17.172234126468304
30
0
10
-18.054809041795874
20
16.73396683587611
30
0
10
-18.054809041795874
20
15.990446874042155
30
0
0
SPLINE
5
158
100
AcDbEntity
8
0
100
AcDbSpline
70
0
71
2
72
6
73
3
74
0
42
0.000000001
43
0.0000000001
44
0.0000000001
40
0
40
0
40
0
40
1
40
1
40
1
10
-18.054809041795874
20
15.990446874042155
30
0
10
-18.054809041795874
20
15.110501417060496
30
0
10
-18.235570855913306
20
14.569915005107523
30
0
0
SPLINE
5
159
100
AcDbEntity
8
0
100
AcDbSpline
70
0
71
2
72
6
73
3
74
0
42
0.000000001
43
0.0000000001
44
0.0000000001
40
0
40
0
40
0
40
1
40
1
40
1
10
-18.235570855913306
20
14.569915005107523
30
0
10
-18.416335054216528
20
14.029328295131327
30
0
10
-18.776158757982397
20
13.734307953258158
30
0
0
LINE
5
160
100
AcDbEntity
8
0
100
AcDbLine
10
-35.435435839471964
20
15.557295450111033
30
0
11
-36.717836924371866
21
15.557295450111033
31
0
0
LINE
5
161
100
AcDbEntity
8
0
100
AcDbLine
10
-36.717836924371866
20
15.557295450111033
30
0
11
-36.717836924371866
21
13.524553247829081
31
0
0
LINE
5
162
100
AcDbEntity
8
0
100
AcDbLine
10
-36.717836924371866
20
13.524553247829081
30
0
11
-37.379501529512552
21
13.524553247829081
31
0
0
LINE
5
163
100
AcDbEntity
8
0
100
AcDbLine
10
-37.379501529512552
20
13.524553247829081
30
0
11
-37.379501529512552
21
18.524553247829083
31
0
0
LINE
5
164
100
AcDbEntity
8
0
100
AcDbLine
10
-37.379501529512552
20
18.524553247829083
30
0
11
-35.493416853723673
21
18.524553247829083
31
0
0
SPLINE
5
165
100
AcDbEntity
8
0
100
AcDbSpline
70
0
71
2
72
6
73
3
74
0
42
0.000000001
43
0.0000000001
44
0.0000000001
40
0
40
0
40
0
40
1
40
1
40
1
10
-35.493416853723673
20
18.524553247829083
30
0
10
-34.99546355801597
20
18.524553247829083
30
0
10
-34.732844301042704
20
18.476804264922741
30
0
0
SPLINE
5
166
100
AcDbEntity
8
0
100
AcDbSpline
70
0
71
2
72
6
73
3
74
0
42
0.000000001
43
0.0000000001
44
0.0000000001
40
0
40
0
40
0
40
1
40
1
40
1
10
-34.732844301042704
20
18.476804264922741
30
0
10
-34.364494748888163
20
18.415412672896984
30
0
10
-34.115517803011087
20
18.243175515075329
30
0
0
SPLINE
5
167
100
AcDbEntity
8
0
100
AcDbSpline
70
0
71
2
72
6
73
3
74
0
42
0.000000001
43
0.0000000001
44
0.0000000001
40
0
40
0
40
0
40
1
40
1
40
1
10
-34.115517803011087
20
18.243175515075329
30
0
10
-33.866540857134012
20
18.07093805923045
30
0
10
-33.714767165956644
20
17.760569521327618
30
0
0
SPLINE
5
168
100
AcDbEntity
8
0
100
AcDbSpline
70
0
71
2
72
6
73
3
74
0
42
0.000000001
43
0.0000000001
44
0.0000000001
40
0
40
0
40
0
40
1
40
1
40
1
10
-33.714767165956644
20
17.760569521327618
30
0
10
-33.562994070825724
20
17.45020128144801
30
0
10
-33.562994070825724
20
17.078441449542645
30
0
0
SPLINE
5
169
100
AcDbEntity
8
0
100
AcDbSpline
70
0
71
2
72
6
73
3
74
0
42
0.000000001
43
0.0000000001
44
0.0000000001
40
0
40
0
40
0
40
1
40
1
40
1
10
-33.562994070825724
20
17.078441449542645
30
0
10
-33.562994070825724
20
16.440651484866741
30
0
10
-33.968860574541239
20
15.998973318477274
30
0
0
SPLINE
5
170
100
AcDbEntity
8
0
100
AcDbSpline
70
0
71
2
72
6
73
3
74
0
42
0.000000001
43
0.0000000001
44
0.0000000001
40
0
40
0
40
0
40
1
40
1
40
1
10
-33.968860574541239
20
15.998973318477274
30
0
10
-34.374726482210306
20
15.557295450111033
30
0
10
-35.435435839471964
20
15.557295450111033
30
0
0
SPLINE
5
171
100
AcDbEntity
8
0
100
AcDbSpline
70
0
71
2
72
6
73
3
74
0
42
0.000000001
43
0.0000000001
44
0.0000000001
40
0
40
0
40
0
40
1
40
1
40
1
10
-31.598464914140845
20
17.876531549831036
30
0
10
-31.213062473116064
20
18.22100616349757
30
0
10
-31.052761741457129
20
18.545017310519817
30
0
0
LINE
5
172
100
AcDbEntity
8
0
100
AcDbLine
10
-31.052761741457129
20
18.545017310519817
30
0
11
-30.657127567110205
21
18.545017310519817
31
0
0
LINE
5
173
100
AcDbEntity
8
0
100
AcDbLine
10
-30.657127567110205
20
18.545017310519817
30
0
11
-30.657127567110205
21
13.524553247829081
31
0
0
LINE
5
174
100
AcDbEntity
8
0
100
AcDbLine
10
-30.657127567110205
20
13.524553247829081
30
0
11
-31.271043487367773
21
13.524553247829081
31
0
0
LINE
5
175
100
AcDbEntity
8
0
100
AcDbLine
10
-31.271043487367773
20
13.524553247829081
30
0
11
-31.271043487367773
21
17.436558672328594
31
0
0
SPLINE
5
176
100
AcDbEntity
8
0
100
AcDbSpline
70
0
71
2
72
6
73
3
74
0
42
0.000000001
43
0.0000000001
44
0.0000000001
40
0
40
0
40
0
40
1
40
1
40
1
10
-31.271043487367773
20
17.436558672328594
30
0
10
-31.49273461895957
20
17.225098976035717
30
0
10
-31.852557130632544
20
17.01363927974284
30
0
0
SPLINE
5
177
100
AcDbEntity
8
0
100
AcDbSpline
70
0
71
2
72
6
73
3
74
0
42
0.000000001
43
0.0000000001
44
0.0000000001
40
0
40
0
40
0
40
1
40
1
40
1
10
-31.852557130632544
20
17.01363927974284
30
0
10
-32.212380834398417
20
16.802179583449963
30
0
10
-32.498874135790018
20
16.696449586291912
30
0
0
LINE
5
178
100
AcDbEntity
8
0
100
AcDbLine
10
-32.498874135790018
20
16.696449586291912
30
0
11
-32.498874135790018
21
17.289901145835522
31
0
0
SPLINE
5
179
100
AcDbEntity
8
0
100
AcDbSpline
70
0
71
2
72
6
73
3
74
0
42
0.000000001
43
0.0000000001
44
0.0000000001
40
0
40
0
40
0
40
1
40
1
40
1
10
-32.498874135790018
20
17.289901145835522
30
0
10
-31.983867355165625
20
17.532056638141277
30
0
10
-31.598464914140845
20
17.876531549831036
30
0
0
LWPOLYLINE
5
180
100
AcDbEntity
8
0
100
AcDbPolyline
90
4
70
1
43
0.0
10
-15.779909559068823
20
18.609818884273174
10
-16.271042295274878
20
18.609818884273174
10
-17.720565267381811
20
13.439287015338541
10
-17.226023145494604
20
13.439287015338541
0
ENDSEC
0
SECTION
2
OBJECTS
0
DICTIONARY
5
C
100
AcDbDictionary
3
ACAD_GROUP
350
D
3
ACAD_MLINESTYLE
350
17
0
DICTIONARY
5
D
100
AcDbDictionary
0
DICTIONARY
5
1A
330
C
100
AcDbDictionary
0
DICTIONARY
5
17
100
AcDbDictionary
0
ENDSEC
0
EOF
