0
SECTION
2
HEADER
9
$INSUNITS
70
4
9
$ACADVER
1
AC1014
9
$HANDSEED
5
FFFF
0
ENDSEC
0
SECTION
2
TABLES
0
TABLE
2
VPORT
5
8
100
AcDbSymbolTable
0
ENDTAB
0
TABLE
2
LTYPE
5
5
100
AcDbSymbolTable
0
LTYPE
5
14
100
AcDbSymbolTableRecord
100
AcDbLinetypeTableRecord
2
BYBLOCK
70
0
0
LTYPE
5
15
100
AcDbSymbolTableRecord
100
AcDbLinetypeTableRecord
2
BYLAYER
70
0
0
ENDTAB
0
TABLE
2
LAYER
5
2
100
AcDbSymbolTable
70
2
0
LAYER
5
50
100
AcDbSymbolTableRecord
100
AcDbLayerTableRecord
2
0
70
0
6
CONTINUOUS
0
ENDTAB
0
TABLE
2
STYLE
5
3
100
AcDbSymbolTable
70
1
0
STYLE
5
11
100
AcDbSymbolTableRecord
100
AcDbTextStyleTableRecord
2
STANDARD
70
0
0
ENDTAB
0
TABLE
2
VIEW
5
6
100
AcDbSymbolTable
70
0
0
ENDTAB
0
TABLE
2
UCS
5
7
100
AcDbSymbolTable
70
0
0
ENDTAB
0
TABLE
2
APPID
5
9
100
AcDbSymbolTable
70
2
0
APPID
5
12
100
AcDbSymbolTableRecord
100
AcDbRegAppTableRecord
2
ACAD
70
0
0
ENDTAB
0
TABLE
2
DIMSTYLE
5
A
100
AcDbSymbolTable
70
1
0
ENDTAB
0
TABLE
2
BLOCK_RECORD
5
1
100
AcDbSymbolTable
70
1
0
BLOCK_RECORD
5
1F
100
AcDbSymbolTableRecord
100
AcDbBlockTableRecord
2
*MODEL_SPACE
0
BLOCK_RECORD
5
1B
100
AcDbSymbolTableRecord
100
AcDbBlockTableRecord
2
*PAPER_SPACE
0
ENDTAB
0
ENDSEC
0
SECTION
2
BLOCKS
0
BLOCK
5
20
100
AcDbEntity
100
AcDbBlockBegin
2
*MODEL_SPACE
0
ENDBLK
5
21
100
AcDbEntity
100
AcDbBlockEnd
0
BLOCK
5
1C
100
AcDbEntity
100
AcDbBlockBegin
2
*PAPER_SPACE
0
ENDBLK
5
1D
100
AcDbEntity
100
AcDbBlockEnd
0
ENDSEC
0
SECTION
2
ENTITIES
0
LINE
5
100
100
AcDbEntity
8
0
100
AcDbLine
10
-25.439777589298131
20
-30.086987320199508
30
0
11
-22.247418380237463
21
-25.475800338998337
31
0
0
LINE
5
101
100
AcDbEntity
8
0
100
AcDbLine
10
-22.247418380237463
20
-25.475800338998337
30
0
11
-22.247418380237463
21
-22.086987200990222
31
0
0
LINE
5
102
100
AcDbEntity
8
0
100
AcDbLine
10
-22.247418380237463
20
-22.086987200990222
30
0
11
-21.18875525043094
21
-22.086987200990222
31
0
0
LINE
5
103
100
AcDbEntity
8
0
100
AcDbLine
10
-21.18875525043094
20
-22.086987200990222
30
0
11
-21.18875525043094
21
-25.47580033899834
31
0
0
LINE
5
104
100
AcDbEntity
8
0
100
AcDbLine
10
-21.18875525043094
20
-25.47580033899834
30
0
11
-18.105535722232702
21
-30.086987320199512
31
0
0
LINE
5
105
100
AcDbEntity
8
0
100
AcDbLine
10
-18.105535722232702
20
-30.086987320199512
30
0
11
-19.393394208408242
21
-30.086987320199512
31
0
0
LINE
5
106
100
AcDbEntity
8
0
100
AcDbLine
10
-19.393394208408242
20
-30.086987320199512
30
0
11
-20.970474696613199
21
-27.674981657281421
31
0
0
SPLINE
5
107
100
AcDbEntity
8
0
100
AcDbSpline
70
0
71
2
72
6
73
3
74
0
42
0.000000001
43
0.0000000001
44
0.0000000001
40
0
40
0
40
0
40
1
40
1
40
1
10
-20.970474696613195
20
-27.674981657281421
30
0
10
-21.407036996341589
20
-26.998310390725635
30
0
10
-21.783571458316686
20
-26.321639124169849
30
0
0
SPLINE
5
108
100
AcDbEntity
8
0
100
AcDbSpline
70
0
71
2
72
6
73
3
74
0
42
0.000000001
43
0.0000000001
44
0.0000000001
40
0
40
0
40
0
40
1
40
1
40
1
10
-21.783571458316686
20
-26.321639124169849
30
0
10
-22.143734908557775
20
-26.949197355523609
30
0
10
-22.656694865680578
20
-27.735008898988266
30
0
0
LINE
5
109
100
AcDbEntity
8
0
100
AcDbLine
10
-22.656694865680578
20
-27.735008898988266
30
0
11
-24.206490731693151
21
-30.086987320199508
31
0
0
LINE
5
110
100
AcDbEntity
8
0
100
AcDbLine
10
-24.206490731693151
20
-30.086987320199508
30
0
11
-25.439777589298131
21
-30.086987320199508
31
0
0
SPLINE
5
111
100
AcDbEntity
8
0
100
AcDbSpline
70
0
71
2
72
6
73
3
74
0
42
0.000000001
43
0.0000000001
44
0.0000000001
40
0
40
0
40
0
40
1
40
1
40
1
10
-57.589850640750761
20
-22.624504271760479
30
0
10
-57.194214082218039
20
-22.359838191285625
30
0
10
-56.634869790531027
20
-22.22341269613792
30
0
0
SPLINE
5
112
100
AcDbEntity
8
0
100
AcDbSpline
70
0
71
2
72
6
73
3
74
0
42
0.000000001
43
0.0000000001
44
0.0000000001
40
0
40
0
40
0
40
1
40
1
40
1
10
-56.634869790531027
20
-22.22341269613792
30
0
10
-56.075525498844016
20
-22.086987200990215
30
0
10
-55.349741197086203
20
-22.086987200990215
30
0
0
LINE
5
113
100
AcDbEntity
8
0
100
AcDbLine
10
-55.349741197086203
20
-22.086987200990215
30
0
11
-52.462973809696066
21
-22.086987200990215
31
0
0
LINE
5
114
100
AcDbEntity
8
0
100
AcDbLine
10
-52.462973809696066
20
-22.086987200990215
30
0
11
-52.462973809696066
21
-30.086987320199505
31
0
0
LINE
5
115
100
AcDbEntity
8
0
100
AcDbLine
10
-52.462973809696066
20
-30.086987320199505
30
0
11
-55.21877310321414
21
-30.086987320199505
31
0
0
SPLINE
5
116
100
AcDbEntity
8
0
100
AcDbSpline
70
0
71
2
72
6
73
3
74
0
42
0.000000001
43
0.0000000001
44
0.0000000001
40
0
40
0
40
0
40
1
40
1
40
1
10
-55.21877310321414
20
-30.086987320199505
30
0
10
-56.151924348331328
20
-30.086987320199505
30
0
10
-56.643057084537382
20
-29.972389642014996
30
0
0
SPLINE
5
117
100
AcDbEntity
8
0
100
AcDbSpline
70
0
71
2
72
6
73
3
74
0
42
0.000000001
43
0.0000000001
44
0.0000000001
40
0
40
0
40
0
40
1
40
1
40
1
10
-56.643057084537382
20
-29.972389642014996
30
0
10
-57.330641961551542
20
-29.814135733857647
30
0
10
-57.816314912296171
20
-29.399401847138897
30
0
0
SPLINE
5
118
100
AcDbEntity
8
0
100
AcDbSpline
70
0
71
2
72
6
73
3
74
0
42
0.000000001
43
0.0000000001
44
0.0000000001
40
0
40
0
40
0
40
1
40
1
40
1
10
-57.816314912296171
20
-29.399401847138897
30
0
10
-58.449330544925566
20
-28.864613477006451
30
0
10
-58.76310846850955
20
-28.032417002931133
30
0
0
SPLINE
5
119
100
AcDbEntity
8
0
100
AcDbSpline
70
0
71
2
72
6
73
3
74
0
42
0.000000001
43
0.0000000001
44
0.0000000001
40
0
40
0
40
0
40
1
40
1
40
1
10
-58.76310846850955
20
-28.032417002931133
30
0
10
-59.076891160465117
20
-27.200220528855816
30
0
10
-59.076891160465117
20
-26.130643788590923
30
0
0
SPLINE
5
120
100
AcDbEntity
8
0
100
AcDbSpline
70
0
71
2
72
6
73
3
74
0
42
0.000000001
43
0.0000000001
44
0.0000000001
40
0
40
0
40
0
40
1
40
1
40
1
10
-59.076891160465117
20
-26.130643788590923
30
0
10
-59.076891160465117
20
-25.219319764390484
30
0
10
-58.864064431644316
20
-24.515363875642315
30
0
0
SPLINE
5
121
100
AcDbEntity
8
0
100
AcDbSpline
70
0
71
2
72
6
73
3
74
0
42
0.000000001
43
0.0000000001
44
0.0000000001
40
0
40
0
40
0
40
1
40
1
40
1
10
-58.864064431644316
20
-24.515363875642315
30
0
10
-58.651242471195097
20
-23.811407390847698
30
0
10
-58.318362451053495
20
-23.350288573518291
30
0
0
SPLINE
5
122
100
AcDbEntity
8
0
100
AcDbSpline
70
0
71
2
72
6
73
3
74
0
42
0.000000001
43
0.0000000001
44
0.0000000001
40
0
40
0
40
0
40
1
40
1
40
1
10
-58.318362451053495
20
-23.350288573518291
30
0
10
-57.985482430911894
20
-22.889169756188885
30
0
10
-57.589850640750761
20
-22.624504271760479
30
0
0
LINE
5
123
100
AcDbEntity
8
0
100
AcDbLine
10
-29.690802312351106
20
-22.086987200990219
30
0
11
-27.377023911929967
21
-28.897355500474468
31
0
0
LINE
5
124
100
AcDbEntity
8
0
100
AcDbLine
10
-27.377023911929967
20
-28.897355500474468
30
0
11
-27.377023911929964
21
-22.086987200990222
31
0
0
LINE
5
125
100
AcDbEntity
8
0
100
AcDbLine
10
-27.377023911929964
20
-22.086987200990222
30
0
11
-26.356559014774202
21
-22.086987200990222
31
0
0
LINE
5
126
100
AcDbEntity
8
0
100
AcDbLine
10
-26.356559014774202
20
-22.086987200990222
30
0
11
-26.356559014774206
21
-30.086987320199512
31
0
0
LINE
5
127
100
AcDbEntity
8
0
100
AcDbLine
10
-26.356559014774206
20
-30.086987320199512
30
0
11
-27.950010514713171
21
-30.086987320199508
31
0
0
LINE
5
128
100
AcDbEntity
8
0
100
AcDbLine
10
-27.950010514713171
20
-30.086987320199508
30
0
11
-29.843597627139925
21
-24.422594014421009
31
0
0
SPLINE
5
129
100
AcDbEntity
8
0
100
AcDbSpline
70
0
71
2
72
6
73
3
74
0
42
0.000000001
43
0.0000000001
44
0.0000000001
40
0
40
0
40
0
40
1
40
1
40
1
10
-29.843597627139925
20
-24.422594014421005
30
0
10
-30.105536199069856
20
-23.631325665727157
30
0
10
-30.225589490390657
20
-23.238419595971603
30
0
0
SPLINE
5
130
100
AcDbEntity
8
0
100
AcDbSpline
70
0
71
2
72
6
73
3
74
0
42
0.000000001
43
0.0000000001
44
0.0000000001
40
0
40
0
40
0
40
1
40
1
40
1
10
-30.225589490390657
20
-23.238419595971603
30
0
10
-30.362014985538362
20
-23.674981895699997
30
0
10
-30.651238179660677
20
-24.520820680871505
30
0
0
LINE
5
131
100
AcDbEntity
8
0
100
AcDbLine
10
-30.651238179660673
20
-24.520820680871505
30
0
11
-32.566654897189977
21
-30.086987320199505
31
0
0
LINE
5
132
100
AcDbEntity
8
0
100
AcDbLine
10
-32.566654897189977
20
-30.086987320199505
30
0
11
-33.990938878513219
21
-30.086987320199508
31
0
0
LINE
5
133
100
AcDbEntity
8
0
100
AcDbLine
10
-33.990938878513219
20
-30.086987320199508
30
0
11
-33.990938878513212
21
-22.086987200990222
31
0
0
LINE
5
134
100
AcDbEntity
8
0
100
AcDbLine
10
-33.990938878513212
20
-22.086987200990222
30
0
11
-32.970473981357451
21
-22.086987200990219
31
0
0
LINE
5
135
100
AcDbEntity
8
0
100
AcDbLine
10
-32.970473981357451
20
-22.086987200990219
30
0
11
-32.970473981357458
21
-28.782757822289959
31
0
0
LINE
5
136
100
AcDbEntity
8
0
100
AcDbLine
10
-32.970473981357458
20
-28.782757822289959
30
0
11
-30.645780778385042
21
-22.086987200990222
31
0
0
LINE
5
137
100
AcDbEntity
8
0
100
AcDbLine
10
-30.645780778385042
20
-22.086987200990222
30
0
11
-29.690802312351106
21
-22.086987200990219
31
0
0
LWPOLYLINE
5
138
100
AcDbEntity
8
0
100
AcDbPolyline
90
8
70
1
43
0.0
10
-13.434320903278234
20
-24.509906474366687
10
-16.779477811313509
20
-24.509906474366687
10
-17.712629056430696
20
-22.086987200990222
10
-18.918632483936189
20
-22.086987200990222
10
-15.644417024112588
20
-30.086987320199512
10
-14.503898835636026
20
-30.086987320199512
10
-11.431592917896154
20
-22.086987200990222
10
-12.555740094638708
20
-22.086987200990222
0
LWPOLYLINE
5
139
100
AcDbEntity
8
0
100
AcDbPolyline
90
10
70
1
43
0.0
10
-45.396123147464621
20
-28.373480740800396
10
-49.598036027408469
20
-22.086987200990215
10
-50.683980203128691
20
-22.086987200990215
10
-50.683980203128691
20
-30.086987320199508
10
-49.668975091434355
20
-30.086987320199505
10
-49.668975091434355
20
-23.805950585618518
10
-45.467066979862089
20
-30.086987320199508
10
-44.381118035770285
20
-30.086987320199505
10
-44.381118035770285
20
-22.086987200990215
10
-45.396123147464628
20
-22.086987200990222
0
SPLINE
5
140
100
AcDbEntity
8
0
100
AcDbSpline
70
0
71
2
72
6
73
3
74
0
42
0.000000001
43
0.0000000001
44
0.0000000001
40
0
40
0
40
0
40
1
40
1
40
1
10
-39.20239708468997
20
-21.950561705842514
30
0
10
-38.072791314578886
20
-21.950561705842514
30
0
10
-37.183296895480986
20
-22.496264282479782
30
0
0
SPLINE
5
141
100
AcDbEntity
8
0
100
AcDbSpline
70
0
71
2
72
6
73
3
74
0
42
0.000000001
43
0.0000000001
44
0.0000000001
40
0
40
0
40
0
40
1
40
1
40
1
10
-37.183296895480986
20
-22.496264282479782
30
0
10
-36.293802476383085
20
-23.04196685911705
30
0
10
-35.835411763645048
20
-23.986032310739059
30
0
0
SPLINE
5
142
100
AcDbEntity
8
0
100
AcDbSpline
70
0
71
2
72
6
73
3
74
0
42
0.000000001
43
0.0000000001
44
0.0000000001
40
0
40
0
40
0
40
1
40
1
40
1
10
-35.835411763645048
20
-23.986032310739059
30
0
10
-35.377021050907011
20
-24.930097762361068
30
0
10
-35.377021050907011
20
-25.983303490891952
30
0
0
SPLINE
5
143
100
AcDbEntity
8
0
100
AcDbSpline
70
0
71
2
72
6
73
3
74
0
42
0.000000001
43
0.0000000001
44
0.0000000001
40
0
40
0
40
0
40
1
40
1
40
1
10
-35.377021050907011
20
-25.983303490891952
30
0
10
-35.377021050907011
20
-27.975118461862106
30
0
10
-36.446597791171904
20
-29.101994339242477
30
0
0
SPLINE
5
144
100
AcDbEntity
8
0
100
AcDbSpline
70
0
71
2
72
6
73
3
74
0
42
0.000000001
43
0.0000000001
44
0.0000000001
40
0
40
0
40
0
40
1
40
1
40
1
10
-36.446597791171904
20
-29.101994339242477
30
0
10
-37.516174531436796
20
-30.2288696205764
30
0
10
-39.207854485965605
20
-30.2288696205764
30
0
0
SPLINE
5
145
100
AcDbEntity
8
0
100
AcDbSpline
70
0
71
2
72
6
73
3
74
0
42
0.000000001
43
0.0000000001
44
0.0000000001
40
0
40
0
40
0
40
1
40
1
40
1
10
-39.207854485965605
20
-30.2288696205764
30
0
10
-40.315628266788359
20
-30.2288696205764
30
0
10
-41.20512507007205
20
-29.699538651719589
30
0
0
SPLINE
5
146
100
AcDbEntity
8
0
100
AcDbSpline
70
0
71
2
72
6
73
3
74
0
42
0.000000001
43
0.0000000001
44
0.0000000001
40
0
40
0
40
0
40
1
40
1
40
1
10
-41.20512507007205
20
-29.699538651719589
30
0
10
-42.094619489169951
20
-29.17020708681633
30
0
10
-42.561195111728544
20
-28.223412934556503
30
0
0
SPLINE
5
147
100
AcDbEntity
8
0
100
AcDbSpline
70
0
71
2
72
6
73
3
74
0
42
0.000000001
43
0.0000000001
44
0.0000000001
40
0
40
0
40
0
40
1
40
1
40
1
10
-42.561195111728544
20
-28.223412934556503
30
0
10
-43.027770734287138
20
-27.276618782296676
30
0
10
-43.027770734287138
20
-26.076073352113266
30
0
0
SPLINE
5
148
100
AcDbEntity
8
0
100
AcDbSpline
70
0
71
2
72
6
73
3
74
0
42
0.000000001
43
0.0000000001
44
0.0000000001
40
0
40
0
40
0
40
1
40
1
40
1
10
-43.027770734287138
20
-26.076073352113266
30
0
10
-43.027770734287138
20
-24.859156314149399
30
0
10
-42.536640382266874
20
-23.89871985079338
30
0
0
SPLINE
5
149
100
AcDbEntity
8
0
100
AcDbSpline
70
0
71
2
72
6
73
3
74
0
42
0.000000001
43
0.0000000001
44
0.0000000001
40
0
40
0
40
0
40
1
40
1
40
1
10
-42.536640382266874
20
-23.89871985079338
30
0
10
-42.04550764606082
20
-22.938283387437362
30
0
10
-41.145096040225859
20
-22.444422546639938
30
0
0
SPLINE
5
150
100
AcDbEntity
8
0
100
AcDbSpline
70
0
71
2
72
6
73
3
74
0
42
0.000000001
43
0.0000000001
44
0.0000000001
40
0
40
0
40
0
40
1
40
1
40
1
10
-41.145096040225859
20
-22.444422546639938
30
0
10
-40.24468920276248
20
-21.950561705842514
30
0
10
-39.20239708468997
20
-21.950561705842514
30
0
0
LINE
5
151
100
AcDbEntity
8
0
100
AcDbLine
10
-6.5420978431471655
20
-25.639511052384876
30
0
11
-5.3142671947249243
21
-25.639511052384876
31
0
0
LINE
5
152
100
AcDbEntity
8
0
100
AcDbLine
10
-5.3142671947249243
20
-25.639511052384876
30
0
11
-5.3142671947249234
21
-22.086987200990222
31
0
0
LINE
5
153
100
AcDbEntity
8
0
100
AcDbLine
10
-5.3142671947249234
20
-22.086987200990222
30
0
11
-4.2556041394242108
21
-22.086987200990222
31
0
0
LINE
5
154
100
AcDbEntity
8
0
100
AcDbLine
10
-4.2556041394242108
20
-22.086987200990222
30
0
11
-4.2556041394242152
21
-30.086987320199512
31
0
0
LINE
5
155
100
AcDbEntity
8
0
100
AcDbLine
10
-4.2556041394242152
20
-30.086987320199512
30
0
11
-7.802670813060649
21
-30.086987320199512
31
0
0
SPLINE
5
156
100
AcDbEntity
8
0
100
AcDbSpline
70
0
71
2
72
6
73
3
74
0
42
0.000000001
43
0.0000000001
44
0.0000000001
40
0
40
0
40
0
40
1
40
1
40
1
10
-7.8026708130606508
20
-30.086987320199512
30
0
10
-8.8722481493719894
20
-30.086987320199512
30
0
10
-9.4288649325140792
20
-29.871434274926685
30
0
0
SPLINE
5
157
100
AcDbEntity
8
0
100
AcDbSpline
70
0
71
2
72
6
73
3
74
0
42
0.000000001
43
0.0000000001
44
0.0000000001
40
0
40
0
40
0
40
1
40
1
40
1
10
-9.4288649325140792
20
-29.871434274926685
30
0
10
-9.985481715656169
20
-29.655881825700305
30
0
10
-10.318359947658426
20
-29.110179249063037
30
0
0
SPLINE
5
158
100
AcDbEntity
8
0
100
AcDbSpline
70
0
71
2
72
6
73
3
74
0
42
0.000000001
43
0.0000000001
44
0.0000000001
40
0
40
0
40
0
40
1
40
1
40
1
10
-10.318359947658426
20
-29.110179249063037
30
0
10
-10.651238775707132
20
-28.564476672425769
30
0
10
-10.651238775707132
20
-27.90417701365044
30
0
0
SPLINE
5
159
100
AcDbEntity
8
0
100
AcDbSpline
70
0
71
2
72
6
73
3
74
0
42
0.000000001
43
0.0000000001
44
0.0000000001
40
0
40
0
40
0
40
1
40
1
40
1
10
-10.651238775707132
20
-27.90417701365044
30
0
10
-10.651238775707132
20
-27.052880827203296
30
0
10
-10.100078797794229
20
-26.468978825822376
30
0
0
SPLINE
5
160
100
AcDbEntity
8
0
100
AcDbSpline
70
0
71
2
72
6
73
3
74
0
42
0.000000001
43
0.0000000001
44
0.0000000001
40
0
40
0
40
0
40
1
40
1
40
1
10
-10.100078797794229
20
-26.468978825822376
30
0
10
-9.5489194159277737
20
-25.885077420487903
30
0
10
-8.3974870209463894
20
-25.726823512330554
30
0
0
SPLINE
5
161
100
AcDbEntity
8
0
100
AcDbSpline
70
0
71
2
72
6
73
3
74
0
42
0.000000001
43
0.0000000001
44
0.0000000001
40
0
40
0
40
0
40
1
40
1
40
1
10
-8.3974870209463894
20
-25.726823512330554
30
0
10
-8.8176777128943264
20
-25.524913374200366
30
0
10
-9.0359588627585232
20
-25.328460637345813
30
0
0
SPLINE
5
162
100
AcDbEntity
8
0
100
AcDbSpline
70
0
71
2
72
6
73
3
74
0
42
0.000000001
43
0.0000000001
44
0.0000000001
40
0
40
0
40
0
40
1
40
1
40
1
10
-9.0359588627585232
20
-25.328460637345813
30
0
10
-9.4998063807257473
20
-24.902812544122241
30
0
10
-9.9145402674444973
20
-24.264340702310108
30
0
0
LINE
5
163
100
AcDbEntity
8
0
100
AcDbLine
10
-9.9145402674444973
20
-24.264340702310104
30
0
11
-11.306081629253271
21
-22.086987200990222
31
0
0
LINE
5
164
100
AcDbEntity
8
0
100
AcDbLine
10
-11.306081629253271
20
-22.086987200990222
30
0
11
-9.9745675091513437
21
-22.086987200990222
31
0
0
LINE
5
165
100
AcDbEntity
8
0
100
AcDbLine
10
-9.9745675091513437
20
-22.086987200990222
30
0
11
-8.9159043793448269
21
-23.751380149140857
31
0
0
SPLINE
5
166
100
AcDbEntity
8
0
100
AcDbSpline
70
0
71
2
72
6
73
3
74
0
42
0.000000001
43
0.0000000001
44
0.0000000001
40
0
40
0
40
0
40
1
40
1
40
1
10
-8.9159043793448269
20
-23.751380149140857
30
0
10
-8.4520568613776028
20
-24.471707645669483
30
0
10
-8.1519206528433621
20
-24.853698912873767
30
0
0
SPLINE
5
167
100
AcDbEntity
8
0
100
AcDbSpline
70
0
71
2
72
6
73
3
74
0
42
0.000000001
43
0.0000000001
44
0.0000000001
40
0
40
0
40
0
40
1
40
1
40
1
10
-8.1519206528433621
20
-24.853698912873767
30
0
10
-7.8517841462858984
20
-25.2356907761245
30
0
10
-7.6144035820730993
20
-25.388487879052661
30
0
0
SPLINE
5
168
100
AcDbEntity
8
0
100
AcDbSpline
70
0
71
2
72
6
73
3
74
0
42
0.000000001
43
0.0000000001
44
0.0000000001
40
0
40
0
40
0
40
1
40
1
40
1
10
-7.6144035820730993
20
-25.388487879052661
30
0
10
-7.3770227198370764
20
-25.541284981980823
30
0
10
-7.1314566497572729
20
-25.601311627641223
30
0
0
SPLINE
5
169
100
AcDbEntity
8
0
100
AcDbSpline
70
0
71
2
72
6
73
3
74
0
42
0.000000001
43
0.0000000001
44
0.0000000001
40
0
40
0
40
0
40
1
40
1
40
1
10
-7.1314566497572729
20
-25.601311627641223
30
0
10
-6.9513749246367285
20
-25.639511052384876
30
0
10
-6.5420978431471655
20
-25.639511052384876
30
0
0
LWPOLYLINE
5
170
100
AcDbEntity
8
0
100
AcDbPolyline
90
16
70
1
43
0.0
10
-50.000000745058045
20
-43.999999999999922
10
-59.999999999999986
20
-43.999999999999922
10
-59.999999999999986
20
3.3306690738754688e-15
10
0
20
0
10
-2.2204460492503131e-15
20
-43.999999999999922
10
-10.00000014901161
20
-43.999999999999922
10
-10.000000149011612
20
-45.24999999999995
10
-1.4901161445035608e-07
20
-45.24999999999995
10
-1.4901161304869959e-07
20
-48.749999999999943
10
-10.00000014901161
20
-48.749999999999943
10
-10.000000149011612
20
-49.999999999999922
10
-50.000000745058045
20
-49.999999999999922
10
-50.000000745058045
20
-48.749999999999922
10
-60.000000745058045
20
-48.749999999999922
10
-60.000000745058045
20
-45.249999999999922
10
-50.000000745058045
20
-45.249999999999922
0
ENDSEC
0
SECTION
2
OBJECTS
0
DICTIONARY
5
C
100
AcDbDictionary
3
ACAD_GROUP
350
D
3
ACAD_MLINESTYLE
350
17
0
DICTIONARY
5
D
100
AcDbDictionary
0
DICTIONARY
5
1A
330
C
100
AcDbDictionary
0
DICTIONARY
5
17
100
AcDbDictionary
0
ENDSEC
0
EOF
